<svg width="21" height="20" viewBox="0 0 21 20" fill="none" xmlns="http://www.w3.org/2000/svg">
<g id="CalendarBlank-r">
<path id="Union" fill-rule="evenodd" clip-rule="evenodd" d="M13.625 2.5V1.875C13.625 1.52982 13.9048 1.25 14.25 1.25C14.5952 1.25 14.875 1.52982 14.875 1.875V2.5H16.75C16.75 2.5 17.2678 2.5 17.6339 2.86612C17.6339 2.86612 18 3.23223 18 3.75V16.25C18 16.25 18 16.7678 17.6339 17.1339C17.6339 17.1339 17.2678 17.5 16.75 17.5H4.25C4.25 17.5 3.73223 17.5 3.36612 17.1339C3.36612 17.1339 3 16.7678 3 16.25V3.75C3 3.75 3 3.23223 3.36612 2.86612C3.36612 2.86612 3.73223 2.5 4.25 2.5H6.125V1.875C6.125 1.52982 6.40482 1.25 6.75 1.25C7.09518 1.25 7.375 1.52982 7.375 1.875V2.5H13.625ZM4.25 7.5V16.25H16.75V7.5H4.25ZM16.75 6.25H4.25V3.75H6.125V4.375C6.125 4.72018 6.40482 5 6.75 5C7.09518 5 7.375 4.72018 7.375 4.375V3.75H13.625V4.375C13.625 4.72018 13.9048 5 14.25 5C14.5952 5 14.875 4.72018 14.875 4.375V3.75H16.75V6.25Z" fill="black" fill-opacity="0.2"/>
</g>
</svg>
