<svg width="24" height="24" viewBox="0 0 24 24" fill="none" xmlns="http://www.w3.org/2000/svg">
<path d="M21 17.25V19.5C21 19.6989 20.921 19.8896 20.7804 20.0304C20.6396 20.171 20.4489 20.25 20.25 20.25H18C17.8011 20.25 17.6104 20.171 17.4696 20.0304C17.329 19.8896 17.25 19.6989 17.25 19.5V17.25H21Z" fill="black" fill-opacity="0.1"/>
<path d="M6.75 17.25V19.5C6.75 19.6989 6.67099 19.8896 6.53036 20.0304C6.38965 20.171 6.19894 20.25 6 20.25H3.75C3.55106 20.25 3.36035 20.171 3.21964 20.0304C3.07901 19.8896 3 19.6989 3 19.5V17.25H6.75Z" fill="black" fill-opacity="0.1"/>
<path d="M21 11.25L18.1968 4.94998C18.1387 4.81668 18.043 4.70325 17.9215 4.62332C17.8 4.5434 17.658 4.50055 17.5125 4.5H6.48752C6.34204 4.50055 6.19995 4.5434 6.07846 4.62332C5.95697 4.70325 5.8613 4.81668 5.80316 4.94998L3 11.25H21Z" fill="black" fill-opacity="0.1"/>
<path d="M1.5 12H22.5C22.9142 12 23.25 11.6642 23.25 11.25C23.25 10.8358 22.9142 10.5 22.5 10.5H1.5C1.08579 10.5 0.75 10.8358 0.75 11.25C0.75 11.6642 1.08579 12 1.5 12Z" fill="#1C1C1C"/>
<path d="M18 19.5V17.25C18 16.8358 17.6642 16.5 17.25 16.5C16.8358 16.5 16.5 16.8358 16.5 17.25V19.5C16.5 20.1213 16.9393 20.5607 16.9393 20.5607C17.3787 21 18 21 18 21H20.25C20.8713 21 21.3107 20.5607 21.3107 20.5607C21.75 20.1213 21.75 19.5 21.75 19.5V17.25C21.75 16.8358 21.4142 16.5 21 16.5C20.5858 16.5 20.25 16.8358 20.25 17.25V19.5H18Z" fill="#1C1C1C"/>
<path d="M3.75 19.5V17.25C3.75 16.8358 3.41421 16.5 3 16.5C2.58579 16.5 2.25 16.8358 2.25 17.25V19.5C2.25 20.1213 2.68934 20.5607 2.68934 20.5607C3.12868 21 3.75 21 3.75 21H6C6.62132 21 7.06066 20.5607 7.06066 20.5607C7.5 20.1213 7.5 19.5 7.5 19.5V17.25C7.5 16.8358 7.16421 16.5 6.75 16.5C6.33579 16.5 6 16.8358 6 17.25V19.5H3.75Z" fill="#1C1C1C"/>
<path d="M5.25 14.25C5.25 14.6642 5.58579 15 6 15H7.5C7.91421 15 8.25 14.6642 8.25 14.25C8.25 13.8358 7.91421 13.5 7.5 13.5H6C5.58579 13.5 5.25 13.8358 5.25 14.25Z" fill="#1C1C1C"/>
<path d="M15.75 14.25C15.75 14.6642 16.0858 15 16.5 15H18C18.4142 15 18.75 14.6642 18.75 14.25C18.75 13.8358 18.4142 13.5 18 13.5H16.5C16.0858 13.5 15.75 13.8358 15.75 14.25Z" fill="#1C1C1C"/>
<path fill-rule="evenodd" clip-rule="evenodd" d="M21.75 17.25C21.75 17.6642 21.4142 18 21 18H3C2.58579 18 2.25 17.6642 2.25 17.25V11.25C2.25 11.145 2.27207 11.0411 2.31477 10.9451L5.11574 4.65001C5.11574 4.65001 5.29401 4.24152 5.6664 3.99666C5.6664 3.99666 6.0388 3.7518 6.4875 3.75L17.5155 3.75001C17.5155 3.75001 17.9612 3.7518 18.3336 3.99666C18.3336 3.99666 18.706 4.24152 18.8821 4.64511L21.6852 10.9451C21.7279 11.0411 21.75 11.145 21.75 11.25V17.25ZM20.25 11.4093V16.5H3.75V11.4093L6.49051 5.25L17.5095 5.24999L17.5116 5.25489L20.25 11.4093Z" fill="#1C1C1C"/>
</svg>
