<svg width="33" height="32" viewBox="0 0 33 32" fill="none" xmlns="http://www.w3.org/2000/svg">
<g id="Close">
<path id="Vector" d="M10.8431 8.92888C10.4526 8.53836 9.8194 8.53836 9.42888 8.92888C9.03836 9.3194 9.03836 9.95257 9.42888 10.3431L15.0858 16L9.42895 21.6568C9.03843 22.0473 9.03843 22.6805 9.42895 23.071C9.81948 23.4615 10.4526 23.4615 10.8432 23.071L16.5 17.4142L22.1568 23.071C22.5473 23.4615 23.1805 23.4615 23.571 23.071C23.9615 22.6805 23.9615 22.0473 23.571 21.6568L17.9142 16L23.5711 10.3431C23.9616 9.95257 23.9616 9.31941 23.5711 8.92888C23.1806 8.53836 22.5474 8.53836 22.1569 8.92888L16.5 14.5858L10.8431 8.92888Z" fill="#1C1C1C"/>
</g>
</svg>
