<svg width="24" height="24" viewBox="0 0 24 24" fill="none" xmlns="http://www.w3.org/2000/svg">
<g id="CurrencyRub-r">
<g id="Vector">
<path d="M5.25 17.25H13.5C13.9142 17.25 14.25 16.9142 14.25 16.5C14.25 16.0858 13.9142 15.75 13.5 15.75H5.25C4.83579 15.75 4.5 16.0858 4.5 16.5C4.5 16.9142 4.83579 17.25 5.25 17.25Z" fill="#1C1C1C"/>
<path fill-rule="evenodd" clip-rule="evenodd" d="M5.25 12.75H7.5V3.75C7.5 3.33579 7.83579 3 8.25 3H13.875C13.875 3 16.205 3 17.8525 4.64752C17.8525 4.64752 19.5 6.29505 19.5 8.625C19.5 8.625 19.5 10.955 17.8525 12.6025C17.8525 12.6025 16.2049 14.25 13.875 14.25H9V20.25C9 20.6642 8.66421 21 8.25 21C7.83579 21 7.5 20.6642 7.5 20.25V14.25H5.25C4.83579 14.25 4.5 13.9142 4.5 13.5C4.5 13.0858 4.83579 12.75 5.25 12.75ZM13.875 12.75H9V4.5H13.875C13.875 4.5 15.5836 4.5 16.7918 5.70818C16.7918 5.70818 18 6.91637 18 8.625C18 8.625 18 10.3336 16.7918 11.5418C16.7918 11.5418 15.5836 12.75 13.875 12.75Z" fill="#1C1C1C"/>
</g>
</g>
</svg>
