<svg width="24" height="24" viewBox="0 0 24 24" fill="none" xmlns="http://www.w3.org/2000/svg">
<circle cx="12" cy="12" r="11.5" stroke="#FF4747"/>
<path d="M11.5 6.5V17.5C11.5 17.7761 11.7239 18 12 18C12.2761 18 12.5 17.7761 12.5 17.5V6.5C12.5 6.22386 12.2761 6 12 6C11.7239 6 11.5 6.22386 11.5 6.5Z" fill="#FF4747"/>
<path d="M12.3536 17.8536L16.8536 13.3536C16.9473 13.2598 17 13.1326 17 13C17 12.8674 16.9473 12.7402 16.8536 12.6464C16.7598 12.5527 16.6326 12.5 16.5 12.5C16.3674 12.5 16.2402 12.5527 16.1464 12.6464L12 16.7929L7.85355 12.6464C7.75979 12.5527 7.63261 12.5 7.5 12.5C7.36739 12.5 7.24021 12.5527 7.14645 12.6464C7.05268 12.7402 7 12.8674 7 13C7 13.1326 7.05268 13.2598 7.14645 13.3536L11.6464 17.8536C11.8417 18.0488 12.1583 18.0488 12.3536 17.8536Z" fill="#FF4747"/>
</svg>
