<svg width="24" height="24" viewBox="0 0 24 24" fill="none" xmlns="http://www.w3.org/2000/svg">
<path fill-rule="evenodd" clip-rule="evenodd" d="M3 2.09524V21.9048C3 23.0619 3.92341 24 5.0625 24H18.9375C20.0766 24 21 23.0619 21 21.9048V5.51345C21 4.95376 20.7796 4.41734 20.3879 4.02377L16.9859 0.60556C16.5997 0.217598 16.0786 0 15.5355 0H5.0625C3.92341 0 3 0.93807 3 2.09524ZM4.3125 21.9048V2.09524C4.3125 1.67445 4.64829 1.33333 5.0625 1.33333H15.2812V5.90476C15.2812 6.69374 15.9108 7.33333 16.6875 7.33333H19.6875V21.9048C19.6875 22.3256 19.3517 22.6667 18.9375 22.6667H5.0625C4.64829 22.6667 4.3125 22.3256 4.3125 21.9048ZM19.6875 6V5.51345C19.6875 5.30993 19.6073 5.11487 19.4649 4.97175L16.5938 2.08691V5.90476C16.5938 5.95736 16.6357 6 16.6875 6H19.6875Z" fill="#1C1C1C"/>
<path fill-rule="evenodd" clip-rule="evenodd" d="M6 9.75C6 9.1875 6.1875 9 6.75 9H17.25C17.8125 9 18 9.1875 18 9.75C18 10.3125 17.8125 10.5 17.25 10.5H6.75C6.1875 10.5 6 10.3125 6 9.75Z" fill="black" fill-opacity="0.2"/>
<path fill-rule="evenodd" clip-rule="evenodd" d="M6 12.75C6 12.1875 6.1875 12 6.75 12H17.25C17.8125 12 18 12.1875 18 12.75C18 13.3125 17.8125 13.5 17.25 13.5H6.75C6.1875 13.5 6 13.3125 6 12.75Z" fill="black" fill-opacity="0.2"/>
<path fill-rule="evenodd" clip-rule="evenodd" d="M6 15.75C6 15.1875 6.1875 15 6.75 15H17.25C17.8125 15 18 15.1875 18 15.75C18 16.3125 17.8125 16.5 17.25 16.5H6.75C6.1875 16.5 6 16.3125 6 15.75Z" fill="black" fill-opacity="0.2"/>
<path fill-rule="evenodd" clip-rule="evenodd" d="M6 18.75C6 18.1875 6.1875 18 6.75 18H17.25C17.8125 18 18 18.1875 18 18.75C18 19.3125 17.8125 19.5 17.25 19.5H6.75C6.1875 19.5 6 19.3125 6 18.75Z" fill="black" fill-opacity="0.2"/>
</svg>
