<svg width="24" height="24" viewBox="0 0 24 24" fill="none" xmlns="http://www.w3.org/2000/svg">
<g id="IdentificationCard-r">
<g id="Vector">
<path d="M14.25 11.25H18C18.4142 11.25 18.75 10.9142 18.75 10.5C18.75 10.0858 18.4142 9.75 18 9.75H14.25C13.8358 9.75 13.5 10.0858 13.5 10.5C13.5 10.9142 13.8358 11.25 14.25 11.25Z" fill="#1C1C1C"/>
<path d="M14.25 14.25H18C18.4142 14.25 18.75 13.9142 18.75 13.5C18.75 13.0858 18.4142 12.75 18 12.75H14.25C13.8358 12.75 13.5 13.0858 13.5 13.5C13.5 13.9142 13.8358 14.25 14.25 14.25Z" fill="#1C1C1C"/>
<path fill-rule="evenodd" clip-rule="evenodd" d="M8.63438 8.25C8.63438 8.25 9.87703 8.25 10.7557 9.12868C10.7557 9.12868 11.6344 10.0074 11.6344 11.25C11.6344 11.25 11.6344 12.4926 10.7557 13.3713C10.7557 13.3713 9.87702 14.25 8.63438 14.25C8.63438 14.25 7.39174 14.25 6.51306 13.3713C6.51306 13.3713 5.63438 12.4926 5.63438 11.25C5.63438 11.25 5.63438 10.0074 6.51306 9.12868C6.51306 9.12868 7.39174 8.25 8.63438 8.25ZM8.63438 9.75C8.63438 9.75 8.01306 9.75 7.57372 10.1893C7.57372 10.1893 7.13438 10.6287 7.13438 11.25C7.13438 11.25 7.13438 11.8713 7.57372 12.3107C7.57372 12.3107 8.01306 12.75 8.63438 12.75C8.63438 12.75 9.2557 12.75 9.69504 12.3107C9.69504 12.3107 10.1344 11.8713 10.1344 11.25C10.1344 11.25 10.1344 10.6287 9.69504 10.1893C9.69504 10.1893 9.2557 9.75 8.63438 9.75Z" fill="#1C1C1C"/>
<path d="M10.014 14.7168C10.6223 15.1889 10.8137 15.9346 10.8137 15.9346L10.8139 15.9353C10.8989 16.2672 11.1981 16.5 11.5406 16.5L11.5557 16.4999C11.6134 16.4987 11.6708 16.4909 11.7267 16.4766C12.0585 16.3916 12.2906 16.0926 12.2906 15.75L12.2905 15.7349C12.2893 15.6773 12.2815 15.6199 12.2672 15.564C11.9486 14.3195 10.9338 13.5318 10.9338 13.5318C9.919 12.7441 8.63438 12.7441 8.63438 12.7441C7.34977 12.7441 6.33499 13.5318 6.33499 13.5318C5.32021 14.3195 5.00157 15.564 5.00157 15.564C4.98601 15.6248 4.97813 15.6873 4.97813 15.75C4.97813 15.7607 4.97836 15.7714 4.97882 15.782C4.98409 15.9055 5.01982 16.0259 5.08283 16.1322C5.1842 16.3034 5.34941 16.4272 5.5421 16.4766C5.60289 16.4921 5.66539 16.5 5.72813 16.5C5.7388 16.5 5.74947 16.4998 5.76013 16.4993C5.88366 16.4941 6.00397 16.4583 6.11035 16.3953C6.28149 16.294 6.40536 16.1287 6.4547 15.9361C6.64588 15.1894 7.25475 14.7168 7.25475 14.7168C7.86362 14.2441 8.63438 14.2441 8.63438 14.2441C9.40515 14.2441 10.014 14.7168 10.014 14.7168Z" fill="#1C1C1C"/>
<path fill-rule="evenodd" clip-rule="evenodd" d="M2.25 5.25C2.25 5.25 2.25 4.62868 2.68934 4.18934C2.68934 4.18934 3.12868 3.75 3.75 3.75H20.25C20.25 3.75 20.8713 3.75 21.3107 4.18934C21.3107 4.18934 21.75 4.62868 21.75 5.25V18.75C21.75 18.75 21.75 19.3713 21.3107 19.8107C21.3107 19.8107 20.8713 20.25 20.25 20.25H3.75C3.75 20.25 3.12868 20.25 2.68934 19.8107C2.68934 19.8107 2.25 19.3713 2.25 18.75V5.25ZM3.75 5.25V18.75H20.25V5.25H3.75Z" fill="#1C1C1C"/>
</g>
</g>
</svg>
