<svg width="20" height="20" viewBox="0 0 20 20" fill="none" xmlns="http://www.w3.org/2000/svg">
<path d="M15.2189 9.6577L10.5923 5.03105L12.7651 2.8582C12.8267 2.79575 12.9 2.74613 12.9808 2.71232C13.0616 2.67844 13.1484 2.66101 13.2361 2.66101C13.3237 2.66101 13.4105 2.67844 13.4914 2.71232C13.5722 2.74613 13.6455 2.79575 13.707 2.8582L17.3918 6.54296C17.4542 6.60452 17.5039 6.67778 17.5377 6.75863C17.5716 6.83947 17.589 6.92628 17.589 7.0139C17.589 7.10153 17.5716 7.18834 17.5377 7.26918C17.5039 7.35003 17.4542 7.42337 17.3918 7.48485L15.2189 9.6577Z" fill="black" fill-opacity="0.1"/>
<path fill-rule="evenodd" clip-rule="evenodd" d="M3.3219 18.25H7.01387L7.01496 18.25C7.01496 18.25 7.27536 18.2505 7.51633 18.1515C7.51633 18.1515 7.75836 18.0521 7.94383 17.8675L17.8592 7.95214C17.8592 7.95214 18.0449 7.76935 18.1474 7.52439C18.1474 7.52439 18.25 7.27942 18.25 7.01385C18.25 7.01385 18.25 6.74828 18.1474 6.50331C18.1474 6.50331 18.0449 6.25835 17.8556 6.072L14.1744 2.39077C14.1744 2.39077 13.9917 2.20514 13.7467 2.10257C13.7467 2.10257 13.5017 2 13.2361 2C13.2361 2 12.9706 2 12.7256 2.10257C12.7256 2.10257 12.4806 2.20514 12.2943 2.39436L2.38361 12.305C2.38361 12.305 2.1979 12.4916 2.0985 12.7337C2.0985 12.7337 1.99909 12.9757 2.00001 13.2374L2 16.9281C2 16.9281 2 17.4756 2.38718 17.8628C2.38718 17.8628 2.77435 18.25 3.3219 18.25ZM16.9245 7.01742L7.01383 16.9281H3.3219L3.3219 13.2362L13.2361 3.3219L13.2397 3.32549L16.9281 7.01385L16.9245 7.01742Z" fill="#1C1C1C"/>
<path d="M14.7515 10.1246L14.7519 10.125C14.8758 10.2489 15.0439 10.3185 15.2192 10.3185C15.3945 10.3185 15.5626 10.2489 15.6866 10.125C15.8106 10.001 15.8802 9.83289 15.8802 9.65759C15.8802 9.4823 15.8106 9.31418 15.6866 9.19023L15.6863 9.18989L11.06 4.56366C10.936 4.43963 10.7679 4.37 10.5926 4.37C10.4173 4.37 10.2492 4.43963 10.1252 4.56358C10.0013 4.68753 9.93164 4.85565 9.93164 5.03094C9.93164 5.20624 10.0013 5.37435 10.1252 5.49831L14.7515 10.1246Z" fill="#1C1C1C"/>
<path d="M13.3729 7.81191C13.4969 7.68796 13.5668 7.51959 13.5668 7.3443C13.5668 7.169 13.4971 7.00089 13.3732 6.87694L13.3675 6.8713C13.2441 6.75103 13.0782 6.68335 12.9058 6.68335C12.886 6.68335 12.8662 6.68424 12.8464 6.68602C12.6923 6.69993 12.5479 6.76749 12.4385 6.87694L4.50731 14.8081C4.38336 14.932 4.31348 15.1004 4.31348 15.2757C4.31348 15.2863 4.31373 15.2969 4.31424 15.3074C4.32213 15.4716 4.39088 15.6269 4.50706 15.7431C4.63102 15.867 4.79913 15.9366 4.97443 15.9366C5.14972 15.9366 5.31784 15.867 5.44179 15.7431L13.3729 7.81191Z" fill="#1C1C1C"/>
<path d="M3.16982 12.5362C3.04586 12.4123 2.87775 12.3427 2.70245 12.3427C2.52716 12.3427 2.35904 12.4123 2.23509 12.5362C2.11114 12.6602 2.0415 12.8283 2.0415 13.0036C2.0415 13.1789 2.11114 13.347 2.23509 13.471L6.77878 18.0147L6.77912 18.015C6.90307 18.1389 7.07119 18.2086 7.24648 18.2086C7.42178 18.2086 7.58989 18.1389 7.71385 18.015C7.8378 17.891 7.90743 17.7229 7.90743 17.5476C7.90743 17.3723 7.8378 17.2042 7.71385 17.0803L7.7135 17.0799L3.16982 12.5362Z" fill="#1C1C1C"/>
</svg>
