<svg width="30" height="30" viewBox="0 0 30 30" fill="none" xmlns="http://www.w3.org/2000/svg">
<path d="M15.9375 6.5625C15.9375 6.04473 15.5178 5.625 15 5.625C14.4822 5.625 14.0625 6.04473 14.0625 6.5625V14.0625H6.5625C6.04473 14.0625 5.625 14.4822 5.625 15C5.625 15.5178 6.04473 15.9375 6.5625 15.9375H14.0625V23.4375C14.0625 23.9553 14.4822 24.375 15 24.375C15.5178 24.375 15.9375 23.9553 15.9375 23.4375V15.9375H23.4375C23.9553 15.9375 24.375 15.5178 24.375 15C24.375 14.4822 23.9553 14.0625 23.4375 14.0625H15.9375V6.5625Z" fill="#26ad60"/>
</svg>
