<svg width="20" height="20" viewBox="0 0 20 20" fill="none" xmlns="http://www.w3.org/2000/svg">
<g id="Help">
<g id="Vector">
<path fill-rule="evenodd" clip-rule="evenodd" d="M13.1372 16.56C13.1372 16.56 11.7733 17.125 10.297 17.125L4.04818 17.1249C4.04818 17.1249 3.8139 17.1281 3.59686 17.0398C3.59686 17.0398 3.37981 16.9516 3.21414 16.7859C3.21414 16.7859 3.04847 16.6203 2.96025 16.4032C2.96025 16.4032 2.87203 16.1862 2.87508 15.9598L2.87508 9.70312C2.87508 9.70312 2.87508 8.22682 3.44003 6.8629C3.44003 6.8629 4.00499 5.49897 5.04889 4.45507C5.04889 4.45507 6.0928 3.41116 7.45672 2.84621C7.45672 2.84621 8.82065 2.28125 10.297 2.28125C10.297 2.28125 11.7733 2.28125 13.1372 2.84621C13.1372 2.84621 14.5011 3.41116 15.545 4.45507C15.545 4.45507 16.5889 5.49898 17.1539 6.8629C17.1539 6.8629 17.7188 8.22682 17.7188 9.70312V9.70477C17.7188 9.70477 17.7185 11.1802 17.1539 12.5434C17.1539 12.5434 16.5889 13.9073 15.545 14.9512C15.545 14.9512 14.5011 15.9951 13.1372 16.56ZM10.297 3.46875C10.297 3.46875 9.05686 3.46875 7.91116 3.94331C7.91116 3.94331 6.76546 4.41788 5.88858 5.29476C5.88858 5.29476 5.0117 6.17163 4.53714 7.31733C4.53714 7.31733 4.06258 8.46303 4.06258 9.70312L4.06258 15.9376L10.297 15.9375C10.297 15.9375 11.537 15.9375 12.6827 15.4629C12.6827 15.4629 13.8284 14.9884 14.7053 14.1115C14.7053 14.1115 15.5822 13.2346 16.0568 12.0889C16.0568 12.0889 16.5313 10.9432 16.5313 9.70312C16.5313 9.70312 16.5313 8.46303 16.0568 7.31733C16.0568 7.31733 15.5822 6.17164 14.7053 5.29476C14.7053 5.29476 13.8284 4.41788 12.6827 3.94331C12.6827 3.94331 11.5369 3.46879 10.297 3.46875Z" fill="black" fill-opacity="0.8"/>
<path d="M10.9777 5.84373L10.8525 11.3317H9.63041L9.50896 5.84373H10.9777ZM10.2415 13.7C10.0112 13.7 9.81385 13.619 9.64939 13.4571C9.48746 13.2951 9.40649 13.0978 9.40649 12.865C9.40649 12.6373 9.48746 12.4425 9.64939 12.2805C9.81385 12.1186 10.0112 12.0376 10.2415 12.0376C10.4666 12.0376 10.6615 12.1186 10.8259 12.2805C10.9929 12.4425 11.0764 12.6373 11.0764 12.865C11.0764 13.0193 11.0372 13.1598 10.9588 13.2863C10.8829 13.4128 10.7816 13.514 10.6551 13.5899C10.5312 13.6633 10.3933 13.7 10.2415 13.7Z" fill="black" fill-opacity="0.8"/>
</g>
</g>
</svg>
