<svg width="24" height="24" viewBox="0 0 24 24" fill="none" xmlns="http://www.w3.org/2000/svg">
<circle cx="12" cy="12" r="11.5" stroke="#26AD60"/>
<path d="M12.5 17.5V6.5C12.5 6.22386 12.2761 6 12 6C11.7239 6 11.5 6.22386 11.5 6.5V17.5C11.5 17.7761 11.7239 18 12 18C12.2761 18 12.5 17.7761 12.5 17.5Z" fill="#26AD60"/>
<path d="M11.6464 6.14645L7.14645 10.6464C7.05268 10.7402 7 10.8674 7 11C7 11.1326 7.05268 11.2598 7.14645 11.3536C7.24021 11.4473 7.36739 11.5 7.5 11.5C7.63261 11.5 7.75979 11.4473 7.85355 11.3536L12 7.20711L16.1464 11.3536C16.2402 11.4473 16.3674 11.5 16.5 11.5C16.6326 11.5 16.7598 11.4473 16.8536 11.3536C16.9473 11.2598 17 11.1326 17 11C17 10.8674 16.9473 10.7402 16.8536 10.6464L12.3536 6.14645C12.1583 5.95118 11.8417 5.95118 11.6464 6.14645Z" fill="#26AD60"/>
</svg>
