<svg width="24" height="24" viewBox="0 0 24 24" fill="none" xmlns="http://www.w3.org/2000/svg">
<path d="M3.15005 13.65C3.04779 13.106 2.99753 12.5535 3.00009 12C2.9989 10.1386 3.57541 8.32288 4.65015 6.80319C5.72488 5.28342 7.24475 4.1348 9.00009 3.51562V10.2656L3.15005 13.65Z" fill="black" fill-opacity="0.1"/>
<path d="M12.75 12V3C12.75 2.58579 12.4142 2.25 12 2.25C11.5858 2.25 11.25 2.58579 11.25 3V12C11.25 12.4142 11.5858 12.75 12 12.75C12.4142 12.75 12.75 12.4142 12.75 12Z" fill="#1C1C1C"/>
<path d="M3.83491 15.8502L3.83434 15.8506C3.6621 15.95 3.53643 16.1139 3.48499 16.306C3.46805 16.3693 3.45947 16.4345 3.45947 16.5C3.45947 16.5079 3.4596 16.5159 3.45985 16.5238C3.46377 16.6474 3.49819 16.7681 3.56003 16.8751C3.69402 17.1071 3.94158 17.25 4.20947 17.25C4.22112 17.25 4.23277 17.2497 4.24441 17.2492C4.36415 17.2436 4.4808 17.2094 4.5846 17.1494L4.58517 17.1491L20.1659 8.14944C20.3978 8.01545 20.5407 7.7679 20.5407 7.5C20.5407 7.48835 20.5405 7.4767 20.5399 7.46506C20.5343 7.34532 20.5001 7.22867 20.4402 7.12487C20.3407 6.95263 20.1768 6.82696 19.9847 6.77552C19.9214 6.75858 19.8562 6.75 19.7907 6.75C19.7828 6.75 19.7749 6.75013 19.7669 6.75038C19.6434 6.7543 19.5227 6.78871 19.4156 6.85056L3.83491 15.8502Z" fill="#1C1C1C"/>
<path fill-rule="evenodd" clip-rule="evenodd" d="M9.37564 10.9148L3.52564 14.2992C3.35347 14.3988 3.14877 14.4259 2.95659 14.3746C2.76441 14.3233 2.60049 14.1977 2.50088 14.0256C2.45839 13.9521 2.42868 13.872 2.41299 13.7886C2.41299 13.7886 2.24592 12.9004 2.25008 11.9965C2.25008 11.9965 2.24809 8.90086 4.03779 6.37012C4.03779 6.37012 5.82748 3.83939 8.75059 2.80833C8.93818 2.74217 9.14436 2.75323 9.32379 2.83909C9.50322 2.92494 9.64119 3.07856 9.70736 3.26615C9.73563 3.34629 9.75007 3.43065 9.75007 3.51563V10.2656C9.75007 10.5333 9.60737 10.7808 9.37564 10.9148ZM3.75953 12.4309L8.25007 9.83305V4.64679C8.25007 4.64679 6.45758 5.54627 5.26249 7.23621C5.26249 7.23621 3.7484 9.37723 3.75006 12.0034C3.75006 12.0034 3.74907 12.2177 3.75953 12.4309Z" fill="#1C1C1C"/>
<path d="M7.91922 19.1706C6.00139 18.0794 4.88434 16.1766 4.88434 16.1766C4.78364 16.005 4.61892 15.8805 4.42642 15.8304C4.36475 15.8144 4.30128 15.8062 4.23755 15.8062C4.22786 15.8062 4.21817 15.8064 4.20849 15.8068C4.08494 15.8116 3.96449 15.8469 3.85786 15.9095C3.62846 16.0441 3.48755 16.2902 3.48755 16.5562L3.48755 16.5584C3.48793 16.6912 3.52355 16.8214 3.59076 16.9359C4.91091 19.1848 7.17744 20.4744 7.17744 20.4744C9.44397 21.7639 12.0516 21.7499 12.0516 21.7499C14.6593 21.7358 16.9118 20.4218 16.9118 20.4218C19.1643 19.1079 20.4601 16.8449 20.4601 16.8449C21.7559 14.5819 21.749 11.9742 21.749 11.9742C21.7421 9.36655 20.4344 7.11046 20.4344 7.11046C19.1266 4.85437 16.8672 3.55233 16.8672 3.55233C14.6078 2.2503 12.0001 2.25 12.0001 2.25C11.9543 2.25 11.9086 2.25419 11.8637 2.26251C11.5081 2.32826 11.2501 2.63834 11.25 2.99992C11.25 3.01196 11.2503 3.02397 11.2509 3.03594C11.2598 3.22218 11.3378 3.39841 11.4697 3.53027C11.6103 3.67094 11.8011 3.74998 12 3.75H12.0003C14.2066 3.75033 16.1183 4.85197 16.1183 4.85197C18.0301 5.9537 19.1366 7.86269 19.1366 7.86269C20.2432 9.77169 20.249 11.9782 20.249 11.9782C20.2548 14.1847 19.1584 16.0995 19.1584 16.0995C18.0619 18.0144 16.156 19.1262 16.156 19.1262C14.25 20.238 12.0435 20.2499 12.0435 20.2499C9.83705 20.2618 7.91922 19.1706 7.91922 19.1706Z" fill="#1C1C1C"/>
</svg>
