<svg width="63" height="79" viewBox="0 0 63 79" fill="none" xmlns="http://www.w3.org/2000/svg">
<g filter="url(#filter0_d_1_1192)">
<path fill-rule="evenodd" clip-rule="evenodd" d="M36.3052 11.0325C36.8922 10.9252 37.2973 10.3772 37.2174 9.78228C37.1351 9.16884 36.5684 8.73792 35.9516 8.81979L35.89 8.82796L35.8276 8.84279C35.2225 8.98713 34.8496 9.592 34.9948 10.1938C35.136 10.7797 35.7162 11.1467 36.3052 11.0325ZM33.5413 11.1724C34.0492 11.53 34.1695 12.2293 33.8099 12.7345L33.7787 12.7784L33.7439 12.8192C33.3417 13.2914 32.6307 13.3498 32.156 12.9497C31.6942 12.5605 31.626 11.8808 31.993 11.4094C32.3586 10.9298 33.0437 10.8221 33.5413 11.1724ZM40.8103 12.5968C41.252 12.1608 41.9654 12.1636 42.4037 12.6029L42.4102 12.6094C42.8484 13.0488 42.8456 13.7583 42.4038 14.1941C41.9621 14.63 41.2487 14.6272 40.8105 14.1878L40.8042 14.1815C40.3659 13.7422 40.3686 13.0327 40.8103 12.5968ZM31.6375 13.5879C32.1267 13.9704 32.2115 14.6749 31.8269 15.1614L31.8214 15.1684C31.4369 15.655 30.7286 15.7394 30.2394 15.3569C29.7501 14.9745 29.6653 14.27 30.0498 13.7834L30.0555 13.7763C30.4401 13.2897 31.1484 13.2054 31.6375 13.5879ZM43.0463 14.8683C43.5059 14.451 44.2185 14.4832 44.6381 14.9402L44.6443 14.947C45.0638 15.4041 45.0313 16.1128 44.5717 16.5301C44.1122 16.9473 43.3995 16.915 42.98 16.4579L42.974 16.4514C42.5544 15.9943 42.5868 15.2856 43.0463 14.8683ZM29.7436 16.0042C30.2431 16.3732 30.3472 17.0751 29.9762 17.5719L29.971 17.5789C29.6 18.0757 28.8942 18.1793 28.3947 17.8103C27.8952 17.4413 27.791 16.7394 28.162 16.2426L28.1673 16.2355C28.5383 15.7387 29.2441 15.6351 29.7436 16.0042ZM45.1904 17.2307C45.6654 16.8309 46.3763 16.8897 46.7783 17.3621L46.7841 17.369C47.1861 17.8414 47.1269 18.5485 46.6519 18.9483C46.1769 19.348 45.466 19.2891 45.064 18.8167L45.0583 18.81C44.6563 18.3376 44.7154 17.6305 45.1904 17.2307ZM27.9094 18.4777C28.4178 18.8345 28.5391 19.5337 28.1803 20.0394L28.1753 20.0465C27.8166 20.5522 27.1136 20.6729 26.6052 20.3162C26.0967 19.9594 25.9753 19.2602 26.3341 18.7545L26.3392 18.7473C26.698 18.2416 27.4009 18.1209 27.9094 18.4777ZM47.239 19.6645C47.7286 19.2826 48.4368 19.3676 48.8209 19.8546L48.8265 19.8618C49.2105 20.3488 49.1249 21.0531 48.6353 21.4351C48.1456 21.817 47.4374 21.7318 47.0534 21.2448L47.0479 21.2378C46.6639 20.7509 46.7494 20.0465 47.239 19.6645ZM26.1363 20.994C26.653 21.3387 26.791 22.0349 26.4443 22.5488L26.4394 22.5561C26.0928 23.0701 25.3929 23.2073 24.8762 22.8626C24.3594 22.5179 24.2214 21.8218 24.568 21.3078L24.573 21.3004C24.9196 20.7864 25.6195 20.6493 26.1363 20.994ZM49.1976 22.1764C49.7018 21.8137 50.4061 21.9262 50.7708 22.4277L50.7762 22.4351C51.1408 22.9367 51.0276 23.6372 50.5233 23.9998C50.0191 24.3624 49.3148 24.2498 48.9502 23.7483L48.9449 23.741C48.5803 23.2396 48.6934 22.539 49.1976 22.1764ZM24.4244 23.5498C24.9494 23.882 25.1042 24.5746 24.7701 25.0968L24.7654 25.1041C24.4314 25.6263 23.735 25.7803 23.21 25.4481C22.685 25.1159 22.5302 24.4233 22.8642 23.9011L22.869 23.8936C23.2031 23.3715 23.8995 23.2175 24.4244 23.5498ZM51.0553 24.7632C51.5745 24.4221 52.2734 24.5643 52.6164 25.0807L52.6215 25.0883C52.9643 25.6048 52.8214 26.2999 52.3021 26.6409C51.7828 26.9819 51.0839 26.8397 50.7411 26.3232L50.7362 26.3158C50.3932 25.7994 50.5361 25.1043 51.0553 24.7632ZM22.7757 26.1456C23.3091 26.4644 23.4815 27.1529 23.161 27.6833L23.1565 27.6908C22.8359 28.2212 22.1437 28.3928 21.6104 28.074C21.0771 27.7552 20.9045 27.0668 21.2251 26.5363L21.2297 26.5287C21.5502 25.9983 22.2424 25.8267 22.7757 26.1456ZM52.7985 27.4256C53.3334 27.1094 54.0248 27.2843 54.3427 27.8163L54.3474 27.8242C54.6653 28.3562 54.4894 29.0438 53.9544 29.3599C53.4195 29.6761 52.7282 29.5011 52.4103 28.9691L52.4057 28.9614C52.0878 28.4294 52.2637 27.7418 52.7985 27.4256ZM21.1946 28.7829C21.7366 29.0869 21.9281 29.7704 21.6224 30.3094L21.6181 30.317C21.3125 30.856 20.6254 31.0466 20.0833 30.7426C19.5413 30.4387 19.3497 29.7552 19.6554 29.2161L19.6597 29.2084C19.9654 28.6694 20.6526 28.4789 21.1946 28.7829ZM54.4111 30.1693C54.9624 29.8824 55.6432 30.0944 55.9316 30.6427L55.9359 30.6509C56.2243 31.1993 56.0111 31.8764 55.4597 32.1632C54.9083 32.45 54.2275 32.2379 53.9392 31.6895L53.935 31.6816C53.6466 31.1333 53.8597 30.4562 54.4111 30.1693ZM19.6881 31.4637C20.2392 31.7509 20.4518 32.4282 20.1629 32.9764L20.1589 32.984C19.8701 33.5322 19.1892 33.7437 18.638 33.4565C18.0868 33.1692 17.8742 32.492 18.163 31.9438L18.1671 31.936C18.456 31.3878 19.1369 31.1764 19.6881 31.4637ZM55.8682 32.9976C56.4368 32.7462 57.1027 33.0007 57.3555 33.5662L57.3593 33.5747C57.612 34.1402 57.3559 34.8024 56.7873 35.0538C56.2187 35.3052 55.5529 35.0505 55.3002 34.4849L55.2966 34.4769C55.0437 33.9114 55.2997 33.2491 55.8682 32.9976ZM18.2663 34.1902C18.8272 34.4582 19.0635 35.1276 18.7941 35.6855L18.7903 35.6933C18.5209 36.2511 17.8479 36.4862 17.2869 36.2183C16.726 35.9504 16.4897 35.281 16.759 34.7231L16.7629 34.7151C17.0323 34.1573 17.7054 33.9222 18.2663 34.1902ZM57.137 35.9136C57.7231 35.7057 58.3676 36.0098 58.5766 36.5927L58.5798 36.6014C58.7886 37.1844 58.4827 37.8254 57.8966 38.0331C57.3104 38.2408 56.666 37.9366 56.4571 37.3536L56.4542 37.3454C56.2452 36.7625 56.5509 36.1214 57.137 35.9136ZM16.943 36.9654C17.5143 37.2105 17.7777 37.8699 17.5313 38.4381L17.5279 38.446C17.2815 39.0143 16.6186 39.2764 16.0472 39.0314C15.4758 38.7864 15.2123 38.1271 15.4587 37.5588L15.4622 37.5506C15.7086 36.9823 16.3716 36.7203 16.943 36.9654ZM58.174 38.9203C58.7769 38.767 59.3905 39.1288 59.5446 39.7284L59.5469 39.7375C59.7008 40.3372 59.3369 40.9474 58.734 41.1005C58.1311 41.2536 57.5175 40.8916 57.3636 40.2919L57.3614 40.2834C57.2073 39.6838 57.5711 39.0735 58.174 38.9203ZM15.7364 39.7927C16.319 40.0101 16.6141 40.656 16.3956 41.2355L16.3925 41.2435C16.1741 41.823 15.5246 42.1166 14.942 41.8993C14.3594 41.682 14.0642 41.0361 14.2826 40.4567L14.2858 40.4483C14.5043 39.8689 15.1538 39.5753 15.7364 39.7927ZM58.9198 42.0116C59.5362 41.9271 60.1047 42.3556 60.1897 42.9687L60.191 42.978C60.2757 43.5911 59.8447 44.1565 59.2282 44.2408C58.6118 44.325 58.0434 43.8963 57.9586 43.2832L57.9574 43.2747C57.8725 42.6616 58.3033 42.0961 58.9198 42.0116ZM14.6718 42.6759C15.2662 42.8588 15.599 43.4864 15.4152 44.0776L15.4126 44.0858C15.2288 44.677 14.5979 45.0082 14.0034 44.8254C13.409 44.6426 13.076 44.0151 13.2598 43.4238L13.2625 43.4153C13.4463 42.824 14.0773 42.493 14.6718 42.6759ZM59.2982 45.1664C59.9205 45.1675 60.424 45.6701 60.423 46.289L60.4229 46.2937L60.4229 46.2987C60.4215 46.9176 59.916 47.4181 59.2937 47.4167C58.6715 47.4153 58.1682 46.9125 58.1696 46.2936L58.1696 46.2893L58.1696 46.2851C58.1707 45.6662 58.676 45.1654 59.2982 45.1664ZM13.7842 45.618C14.3906 45.7567 14.7691 46.3581 14.6296 46.9613L14.6277 46.9695C14.4883 47.5727 13.8837 47.9492 13.2773 47.8106C12.6708 47.672 12.2922 47.0707 12.4316 46.4675L12.4336 46.4588C12.5731 45.8556 13.1778 45.4792 13.7842 45.618ZM59.2275 48.412C59.8447 48.4904 60.2812 49.0516 60.2024 49.6655L60.2011 49.6751C60.1221 50.2889 59.5577 50.7228 58.9405 50.6442C58.3233 50.5656 57.887 50.0043 57.966 49.3904L57.9672 49.3816C58.046 48.7677 58.6103 48.3336 59.2275 48.412ZM13.1242 48.6181C13.7412 48.6988 14.1756 49.2616 14.0944 49.8752L14.0934 49.8835C14.0124 50.4971 13.4467 50.9293 12.8297 50.8488C12.2128 50.7684 11.7782 50.2057 11.8591 49.5921L11.8603 49.5831C11.9414 48.9695 12.5073 48.5375 13.1242 48.6181ZM58.7526 51.6237C59.356 51.7749 59.7219 52.384 59.5699 52.9841L59.5675 52.9934C59.4153 53.5935 58.8028 53.9572 58.1995 53.8058C57.5961 53.6544 57.2304 53.0452 57.3827 52.4451L57.3848 52.4365C57.5369 51.8364 58.1493 51.4725 58.7526 51.6237ZM12.7649 51.666C13.3871 51.6685 13.8895 52.1723 13.8869 52.7911L13.8869 52.7932L13.8869 52.7952L13.8869 52.7976C13.8857 53.4165 13.3803 53.9172 12.7581 53.9161C12.1358 53.9149 11.6324 53.4122 11.6335 52.7934L11.6336 52.7885L11.6336 52.7865L11.6336 52.7819C11.6361 52.1631 12.1426 51.6634 12.7649 51.666ZM57.8978 54.7567C58.4797 54.9758 58.7727 55.6227 58.5524 56.2015L58.5489 56.2105C58.3284 56.7891 57.6779 57.0804 57.096 56.861C56.5142 56.6417 56.2213 55.9947 56.4419 55.416L56.4451 55.4077C56.6655 54.8289 57.3159 54.5375 57.8978 54.7567ZM12.8195 54.9041C13.4365 54.8239 14.0021 55.2563 14.0827 55.87L14.0839 55.8787C14.1648 56.4923 13.7302 57.0549 13.1132 57.1354C12.4963 57.2158 11.9305 56.7836 11.8496 56.17L11.8484 56.1605C11.7677 55.5468 12.2025 54.9843 12.8195 54.9041ZM56.6884 57.7717C57.2421 58.0542 57.4606 58.7296 57.1766 59.2802L57.1722 59.2888C56.8881 59.8394 56.2089 60.0565 55.6554 59.7739C55.1018 59.4913 54.8834 58.8158 55.1676 58.2652L55.1717 58.2573C55.4557 57.7067 56.1348 57.4893 56.6884 57.7717ZM13.309 58.1048C13.9086 57.9394 14.5295 58.2889 14.6957 58.8852L14.6981 58.8937C14.8646 59.49 14.5135 60.1076 13.9139 60.2732C13.3144 60.4388 12.6934 60.0897 12.5269 59.4934L12.5243 59.484C12.358 58.8876 12.7093 58.2701 13.309 58.1048ZM55.1491 60.6343C55.6681 60.9757 55.8107 61.6709 55.4674 62.1871L55.4621 62.1951C55.1187 62.7112 54.4197 62.8527 53.9008 62.5112C53.3819 62.1697 53.2396 61.4744 53.5829 60.9583L53.5879 60.9509C53.9311 60.4347 54.6301 60.2929 55.1491 60.6343ZM14.2481 61.2044C14.8165 60.9526 15.4825 61.2068 15.7357 61.7721L15.7393 61.7801C15.9927 62.3453 15.7375 63.0078 15.1692 63.2599C14.6009 63.512 13.9347 63.2581 13.6813 62.6929L13.6773 62.684C13.4242 62.1187 13.6797 61.4562 14.2481 61.2044ZM53.3027 63.3112C53.7808 63.7073 53.8455 64.4139 53.4472 64.8894L53.441 64.8968C53.0425 65.3721 52.3321 65.4362 51.8541 65.0399C51.3762 64.6436 51.3118 63.937 51.7102 63.4617L51.7159 63.4548C52.1143 62.9794 52.8247 62.9151 53.3027 63.3112ZM15.6419 64.1301C16.164 63.7933 16.8617 63.9412 17.2003 64.4604L17.2051 64.4677C17.5439 64.9868 17.3955 65.6808 16.8736 66.0178C16.3517 66.3548 15.654 66.2072 15.3151 65.6882L15.3098 65.68C14.9712 65.1608 15.1199 64.4668 15.6419 64.1301ZM51.1707 65.7693C51.6012 66.2161 51.5859 66.9255 51.1365 67.3536L51.1296 67.3603C50.6801 67.7882 49.9669 67.7728 49.5366 67.3257C49.1063 66.8787 49.1218 66.1694 49.5713 65.7414L49.5777 65.7353C50.0271 65.3071 50.7403 65.3224 51.1707 65.7693ZM17.4801 66.8021C17.9401 66.3853 18.6527 66.4184 19.0717 66.8759L19.0776 66.8823C19.4968 67.3396 19.4639 68.0484 19.0041 68.4654C18.5443 68.8823 17.8317 68.8496 17.4125 68.3923L17.4059 68.3851C16.9868 67.9276 17.02 67.2189 17.4801 66.8021ZM48.7745 67.9734C49.1502 68.4667 49.0528 69.1696 48.5568 69.5433L48.5491 69.5491C48.053 69.9227 47.3463 69.8255 46.9707 69.3321C46.5951 68.8387 46.6928 68.1358 47.1889 67.7623L47.1961 67.7569C47.692 67.3832 48.3987 67.4801 48.7745 67.9734ZM19.7332 69.1388C20.1162 68.6511 20.8242 68.5645 21.3146 68.9454L21.3215 68.9507C21.8121 69.3314 21.8995 70.0356 21.5168 70.5235C21.134 71.0114 20.426 71.0984 19.9354 70.7177L19.9277 70.7117C19.4373 70.3308 19.3502 69.6266 19.7332 69.1388ZM46.1373 69.8864C46.4509 70.421 46.2695 71.1071 45.732 71.419L45.7237 71.4239C45.1861 71.7356 44.4963 71.5549 44.1828 71.0202C43.8694 70.4856 44.0511 69.7995 44.5887 69.4878L44.5964 69.4833C45.1338 69.1714 45.8237 69.3519 46.1373 69.8864ZM22.3507 71.0636C22.6442 70.5179 23.3269 70.3122 23.8756 70.6041L23.8833 70.6082C24.4321 70.8999 24.6392 71.5788 24.346 72.1247C24.0527 72.6705 23.3701 72.8765 22.8213 72.5848L22.8126 72.5802C22.264 72.2883 22.0571 71.6092 22.3507 71.0636ZM43.2875 71.469C43.5315 72.0383 43.2653 72.6965 42.6929 72.9392L42.684 72.943C42.1115 73.1855 41.4497 72.9205 41.2059 72.3511C40.9621 71.7817 41.2286 71.1236 41.801 70.8811L41.8092 70.8776C42.3816 70.6349 43.0435 70.8997 43.2875 71.469ZM25.2605 72.5144C25.4567 71.927 26.0944 71.6091 26.6849 71.8041L26.6932 71.8069C27.2838 72.0017 27.6038 72.6358 27.408 73.2232C27.2121 73.8106 26.5746 74.1289 25.984 73.9341L25.9746 73.931C25.3841 73.736 25.0644 73.1017 25.2605 72.5144ZM40.2604 72.6827C40.4282 73.2786 40.0785 73.897 39.4793 74.0639L39.47 74.0665C38.8707 74.2332 38.2491 73.8852 38.0815 73.2892C37.9139 72.6932 38.2638 72.0749 38.863 71.9082L38.8716 71.9058C39.4708 71.7389 40.0925 72.0867 40.2604 72.6827ZM28.3749 73.4543C28.4716 72.8429 29.0483 72.4253 29.663 72.5214L29.6716 72.5228C30.2863 72.6186 30.7066 73.192 30.6102 73.8034C30.5138 74.4148 29.9373 74.8327 29.3226 74.7369L29.3129 74.7354C28.6982 74.6392 28.2783 74.0657 28.3749 73.4543ZM37.0989 73.4943C37.1858 74.1071 36.7568 74.674 36.1406 74.7604L36.1309 74.7618C35.5148 74.8479 34.945 74.421 34.8583 73.8081C34.7717 73.1953 35.201 72.6286 35.8171 72.5424L35.826 72.5412C36.4421 72.4548 37.012 72.8815 37.0989 73.4943ZM31.6017 73.8777C31.6026 73.2588 32.1078 72.7579 32.73 72.7588L32.7388 72.7588C33.361 72.7595 33.8649 73.2618 33.8642 73.8806C33.8636 74.4995 33.3586 75.0007 32.7363 75L32.7266 75C32.1044 74.999 31.6007 74.4966 31.6017 73.8777Z" fill="#1C1C1C"/>
</g>
<g filter="url(#filter1_d_1_1192)">
<path fill-rule="evenodd" clip-rule="evenodd" d="M32.6157 7.9027C32.9687 7.83893 33.2124 7.50971 33.1644 7.15233C33.115 6.78427 32.775 6.52571 32.4049 6.57483L32.3667 6.57991L32.3278 6.58915C31.9647 6.67571 31.7409 7.0386 31.828 7.3997C31.9128 7.75177 32.2618 7.97214 32.6157 7.9027ZM29.6748 8.84946C29.9795 9.06396 30.0517 9.48356 29.8361 9.78667L29.8164 9.81438L29.7944 9.84017C29.553 10.1235 29.1265 10.1585 28.8416 9.91848C28.5637 9.68423 28.5234 9.27459 28.7459 8.99167C28.9652 8.70398 29.3762 8.63932 29.6748 8.84946ZM27.4629 11.6152C27.7574 11.8434 27.8102 12.2658 27.5808 12.5588L27.5754 12.5656C27.346 12.8586 26.9213 12.9112 26.6267 12.683C26.3321 12.4548 26.2793 12.0324 26.5087 11.7394L26.5142 11.7325C26.7436 11.4395 27.1683 11.387 27.4629 11.6152ZM40.529 13.3626C40.8082 13.1161 41.2355 13.1413 41.4834 13.419L41.4896 13.426C41.7375 13.7037 41.7121 14.1286 41.4329 14.3751C41.1537 14.6217 40.7264 14.5964 40.4786 14.3187L40.4724 14.3118C40.2245 14.0341 40.2498 13.6092 40.529 13.3626ZM25.3001 14.434C25.6015 14.6531 25.6673 15.0738 25.447 15.3735L25.4418 15.3806C25.2215 15.6804 24.7986 15.7458 24.4971 15.5267C24.1957 15.3076 24.1299 14.8869 24.3502 14.5871L24.3555 14.58C24.5758 14.2802 24.9987 14.2149 25.3001 14.434ZM42.9963 16.2062C43.2861 15.972 43.7119 16.0159 43.9473 16.3041L43.9532 16.3114C44.1886 16.5996 44.1445 17.0231 43.8547 17.2572C43.5649 17.4913 43.1391 17.4474 42.9038 17.1591L42.8979 17.152C42.6625 16.8637 42.7066 16.4403 42.9963 16.2062ZM23.2225 17.3129C23.5299 17.5237 23.6073 17.9424 23.3954 18.2481L23.3904 18.2554C23.1785 18.5611 22.7575 18.6381 22.4501 18.4274C22.1427 18.2167 22.0653 17.798 22.2772 17.4923L22.2823 17.4849C22.4942 17.1792 22.9152 17.1022 23.2225 17.3129ZM45.336 19.1557C45.6361 18.9348 46.0594 18.9977 46.2815 19.2962L46.2871 19.3038C46.5091 19.6023 46.4458 20.0233 46.1457 20.2441C45.8455 20.465 45.4222 20.402 45.2002 20.1035L45.1947 20.0961C44.9726 19.7976 45.0358 19.3765 45.336 19.1557ZM21.2249 20.2479C21.5379 20.4501 21.6269 20.8666 21.4235 21.1779L21.4187 21.1853C21.2153 21.4967 20.7967 21.5852 20.4836 21.3829C20.1705 21.1806 20.0815 20.7642 20.2849 20.4528L20.2897 20.4454C20.4931 20.134 20.9118 20.0456 21.2249 20.2479ZM47.5346 22.2079C47.8453 22.002 48.265 22.0855 48.472 22.3945L48.4773 22.4024C48.6843 22.7115 48.6002 23.1289 48.2895 23.3347C47.9787 23.5406 47.5591 23.457 47.3521 23.1479L47.3469 23.1402C47.1399 22.8312 47.2239 22.4138 47.5346 22.2079ZM19.311 23.2352C19.6298 23.4284 19.7307 23.8421 19.5365 24.1592L19.5319 24.1667C19.3376 24.4838 18.9217 24.5842 18.6029 24.391C18.284 24.1978 18.183 23.7841 18.3773 23.467L18.3819 23.4595C18.5762 23.1424 18.9921 23.0419 19.311 23.2352ZM49.5735 25.3684C49.8953 25.1802 50.3096 25.287 50.4989 25.6071L50.5037 25.6152C50.693 25.9353 50.5855 26.3474 50.2637 26.5356C49.9418 26.7238 49.5275 26.6169 49.3383 26.2968L49.3336 26.2888C49.1443 25.9688 49.2517 25.5567 49.5735 25.3684ZM17.4859 26.2788C17.8106 26.4619 17.9247 26.8723 17.7405 27.1953L17.7362 27.2029C17.5521 27.526 17.1395 27.6394 16.8147 27.4563C16.4899 27.2732 16.3759 26.8629 16.56 26.5398L16.5644 26.5321C16.7485 26.2091 17.1611 26.0957 17.4859 26.2788ZM51.4214 28.6426C51.755 28.4759 52.1613 28.6096 52.329 28.9414L52.3333 28.9499C52.5009 29.2817 52.3663 29.6858 52.0327 29.8525C51.6991 30.0192 51.2928 29.8854 51.1252 29.5535L51.121 29.5453C50.9533 29.2135 51.0878 28.8094 51.4214 28.6426ZM15.7617 29.3799C16.0928 29.5514 16.2214 29.9575 16.0489 30.2868L16.0448 30.2946C15.8724 30.6239 15.4641 30.7518 15.133 30.5803C14.8019 30.4088 14.6732 30.0028 14.8457 29.6734L14.8498 29.6655C15.0223 29.3362 15.4305 29.2083 15.7617 29.3799ZM53.0345 32.0381C53.3804 31.8985 53.7747 32.0641 53.9152 32.4082L53.9188 32.417C54.0591 32.7611 53.8925 33.1532 53.5465 33.2928C53.2006 33.4324 52.8063 33.2666 52.666 32.9226L52.6625 32.914C52.522 32.57 52.6886 32.1778 53.0345 32.0381ZM14.1548 32.5417C14.4927 32.6995 14.6381 33.0999 14.4794 33.436L14.4756 33.444C14.317 33.7801 13.9144 33.9247 13.5764 33.7669C13.2385 33.6091 13.0931 33.2087 13.2518 32.8726L13.2556 32.8645C13.4143 32.5284 13.8169 32.3838 14.1548 32.5417ZM54.3488 35.5579C54.7069 35.4531 55.0827 35.657 55.188 36.0133L55.1907 36.0225C55.2959 36.3787 55.0908 36.7524 54.7326 36.857C54.3744 36.9617 53.9987 36.7577 53.8935 36.4014L53.8909 36.3926C53.7856 36.0363 53.9906 35.6626 54.3488 35.5579ZM12.6872 35.7712C13.0326 35.9123 13.1976 36.3051 13.0558 36.6486L13.0524 36.6567C12.9106 37.0002 12.5157 37.1643 12.1703 37.0233C11.8249 36.8823 11.6599 36.4895 11.8017 36.146L11.8051 36.1378C11.9469 35.7943 12.3419 35.6302 12.6872 35.7712ZM11.3924 39.0729C11.7457 39.1928 11.9344 39.5749 11.8139 39.9263L11.8111 39.9346C11.6906 40.286 11.3065 40.4738 10.9531 40.354C10.5997 40.2342 10.4109 39.8521 10.5314 39.5007L10.5343 39.4922C10.6548 39.1407 11.039 38.953 11.3924 39.0729ZM55.2746 39.196C55.6432 39.1371 55.9901 39.3865 56.0494 39.7531L56.0509 39.7626C56.11 40.1293 55.8591 40.4742 55.4905 40.533C55.1218 40.5918 54.7751 40.3422 54.7159 39.9756L54.7145 39.9665C54.6552 39.5999 54.906 39.2549 55.2746 39.196ZM10.3188 42.4491C10.6805 42.5413 10.8985 42.9076 10.8059 43.2673L10.8037 43.2757C10.7111 43.6354 10.3428 43.8524 9.98116 43.7603C9.61948 43.6682 9.40134 43.3019 9.49394 42.9422L9.49616 42.9335C9.58884 42.5738 9.95715 42.357 10.3188 42.4491ZM55.6918 42.9252C56.0651 42.9258 56.3672 43.2274 56.3666 43.5987L56.3666 43.6035L56.3666 43.6081C56.3657 43.9795 56.0624 44.2798 55.6891 44.279C55.3157 44.2781 55.0137 43.9764 55.0146 43.6051L55.0146 43.6009L55.0146 43.5964C55.0152 43.225 55.3184 42.9245 55.6918 42.9252ZM9.53658 45.9071C9.90589 45.9616 10.1609 46.3035 10.1062 46.6708L10.1049 46.6794C10.0503 47.0467 9.70657 47.3004 9.33724 47.2461C8.96792 47.1917 8.7128 46.8499 8.76743 46.4826L8.76877 46.4736C8.82351 46.1063 9.16727 45.8527 9.53658 45.9071ZM55.5329 46.4609C55.9027 46.5121 56.1608 46.8517 56.1094 47.2194L56.1081 47.2284C56.0566 47.5962 55.7151 47.8528 55.3453 47.8015C54.9755 47.7503 54.7175 47.4106 54.7691 47.0428L54.7703 47.0343C54.8217 46.6665 55.1631 46.4098 55.5329 46.4609ZM9.15732 49.4248C9.53067 49.4263 9.83208 49.7286 9.83054 50.0999L9.83053 50.1029L9.83053 50.1041L9.83052 50.1073C9.82981 50.4786 9.52658 50.779 9.15323 50.7783C8.77989 50.7776 8.47781 50.476 8.47852 50.1047L8.47853 50.1001L8.47855 50.0944C8.48008 49.7231 8.78398 49.4233 9.15732 49.4248ZM54.8996 49.9435C55.2596 50.0419 55.4713 50.4119 55.3724 50.7699L55.37 50.7786C55.271 51.1367 54.8989 51.3471 54.5389 51.2486C54.1789 51.1501 53.9674 50.7801 54.0664 50.422L54.0687 50.4137C54.1676 50.0557 54.5396 49.8451 54.8996 49.9435ZM9.3073 52.9797C9.6768 52.9266 10.0197 53.1814 10.0731 53.5489L10.0743 53.5575C10.1279 53.925 9.8718 54.2661 9.50232 54.3194C9.13284 54.3726 8.78989 54.1179 8.73632 53.7504L8.735 53.7413C8.68157 53.3738 8.9378 53.0328 9.3073 52.9797ZM53.8238 53.3171C54.1687 53.4592 54.3324 53.8525 54.1895 54.1956L54.186 54.2039C54.043 54.5469 53.6475 54.7097 53.3026 54.5674C52.9577 54.4252 52.7941 54.0318 52.9371 53.6888L52.9405 53.6808C53.0834 53.3378 53.4789 53.1749 53.8238 53.3171ZM9.98758 56.4733C10.3443 56.3638 10.7228 56.5626 10.8329 56.9174L10.8355 56.9256C10.9458 57.2804 10.7461 57.6569 10.3894 57.7666C10.0327 57.8763 9.65415 57.6776 9.54385 57.3229L9.54112 57.3141C9.43097 56.9593 9.63085 56.5829 9.98758 56.4733ZM52.3382 56.5332C52.6632 56.7158 52.7779 57.126 52.5943 57.4493L52.5898 57.4572C52.4061 57.7804 51.9937 57.8943 51.6687 57.7116C51.3436 57.5289 51.2291 57.1187 51.4128 56.7955L51.4171 56.7879C51.6007 56.4646 52.0131 56.3506 52.3382 56.5332ZM50.4737 59.5479C50.7744 59.768 50.8388 60.1889 50.6176 60.4879L50.6122 60.4952C50.3909 60.7943 49.9677 60.8582 49.667 60.638C49.3664 60.4179 49.3021 59.997 49.5234 59.698L49.5286 59.691C49.7498 59.392 50.173 59.3279 50.4737 59.5479ZM11.2151 59.8153C11.5488 59.6487 11.9551 59.7827 12.1225 60.1146L12.1264 60.1223C12.294 60.4541 12.1595 60.8582 11.8259 61.0249C11.4923 61.1916 11.0859 61.0578 10.9183 60.726L10.9142 60.7178C10.7467 60.3859 10.8815 59.9818 11.2151 59.8153ZM48.259 62.3184C48.5308 62.573 48.5436 62.9985 48.2876 63.2688L48.2814 63.2754C48.0253 63.5456 47.5975 63.5582 47.3258 63.3035C47.0541 63.0488 47.0414 62.6233 47.2975 62.3531L47.3034 62.3468C47.5594 62.0765 47.9873 62.0638 48.259 62.3184ZM12.9886 62.9042C13.288 62.6825 13.7115 62.7441 13.9345 63.042L13.9396 63.0489C14.1627 63.3466 14.1009 63.7678 13.8015 63.9897C13.5022 64.2116 13.0786 64.1501 12.8555 63.8524L12.85 63.845C12.6271 63.5472 12.6891 63.126 12.9886 62.9042ZM45.7218 64.8C45.9597 65.0862 45.9193 65.51 45.6316 65.7466L45.6246 65.7524C45.3367 65.9889 44.9106 65.9486 44.6728 65.6623C44.435 65.376 44.4756 64.9523 44.7634 64.7157L44.7701 64.7102C45.0578 64.4736 45.4839 64.5138 45.7218 64.8ZM15.2821 65.633C15.536 65.3608 15.9638 65.3449 16.2374 65.5975L16.2437 65.6033C16.5175 65.8558 16.5337 66.2812 16.2799 66.5535C16.026 66.8258 15.5983 66.8419 15.3245 66.5894L15.3178 66.5832C15.0441 66.3306 15.0281 65.9052 15.2821 65.633ZM42.8916 66.9452C43.0904 67.2595 42.9954 67.6746 42.6793 67.8723L42.6716 67.8771C42.3555 68.0747 41.9382 67.98 41.7396 67.6657C41.5409 67.3513 41.6361 66.9362 41.9522 66.7386L41.9595 66.7341C42.2755 66.5364 42.6929 66.6309 42.8916 66.9452ZM18.0404 67.8964C18.2387 67.5818 18.6559 67.4867 18.9722 67.684L18.9795 67.6885C19.2959 67.8856 19.3917 68.3005 19.1935 68.6152C18.9953 68.9299 18.5782 69.0252 18.2618 68.8281L18.254 68.8232C17.9377 68.6259 17.842 68.211 18.0404 67.8964ZM39.8038 68.7036C39.9581 69.0417 39.8076 69.4403 39.4676 69.5937L39.4593 69.5975C39.1193 69.7508 38.7187 69.601 38.5645 69.2629C38.4103 68.9247 38.5609 68.5262 38.9009 68.3728L38.9088 68.3693C39.2487 68.2158 39.6494 68.3655 39.8038 68.7036ZM21.1764 69.6052C21.3119 69.2592 21.7038 69.0879 22.0517 69.2227L22.0597 69.2258C22.4077 69.3604 22.58 69.7501 22.4447 70.0961C22.3094 70.4422 21.9176 70.6136 21.5696 70.479L21.561 70.4757C21.2131 70.3409 21.0409 69.9512 21.1764 69.6052ZM36.5031 70.0254C36.6081 70.3817 36.4027 70.7552 36.0445 70.8597L36.0357 70.8622C35.6774 70.9665 35.3019 70.7621 35.1971 70.4057C35.0922 70.0494 35.2977 69.6759 35.656 69.5716L35.6643 69.5692C36.0226 69.4648 36.3981 69.669 36.5031 70.0254ZM24.579 70.7029C24.6488 70.3381 25.0027 70.0987 25.3695 70.1681L25.378 70.1697C25.7448 70.239 25.9856 70.5909 25.916 70.9557C25.8463 71.3205 25.4925 71.5601 25.1257 71.4908L25.1166 71.4891C24.7498 71.4196 24.5091 71.0676 24.579 70.7029ZM33.0468 70.8676C33.0989 71.2353 32.8415 71.5754 32.4718 71.6273L32.4673 71.6279L32.4627 71.6285C32.0929 71.6803 31.7511 71.4241 31.6991 71.0564C31.6471 70.6887 31.9047 70.3487 32.2744 70.297L32.283 70.2957C32.6527 70.2439 32.9946 70.4999 33.0468 70.8676ZM28.1234 71.1762C28.1295 70.805 28.437 70.5089 28.8103 70.515L28.8189 70.5151C29.1922 70.521 29.49 70.8268 29.4841 71.198C29.4781 71.5693 29.1707 71.8655 28.7974 71.8596L28.7883 71.8595C28.415 71.8534 28.1173 71.5475 28.1234 71.1762Z" fill="#1C1C1C"/>
</g>
<g filter="url(#filter2_d_1_1192)">
<path fill-rule="evenodd" clip-rule="evenodd" d="M29.87 5.8895C30.1061 5.84761 30.2692 5.62773 30.2372 5.38899C30.2043 5.14361 29.9776 4.97124 29.7309 5.00399L29.704 5.00756L29.6764 5.0141C29.4344 5.07181 29.2852 5.31374 29.3432 5.55447C29.3999 5.7897 29.6335 5.93674 29.87 5.8895ZM26.8407 7.23941C27.0439 7.38241 27.092 7.66215 26.9483 7.86422L26.9342 7.88403L26.9186 7.9023C26.7577 8.09116 26.4733 8.11454 26.2835 7.9545C26.0978 7.79802 26.0712 7.52411 26.2205 7.33547C26.3665 7.14261 26.6413 7.09902 26.8407 7.23941ZM24.6206 9.999C24.8169 10.1511 24.8521 10.4328 24.6992 10.6281L24.6938 10.635C24.5408 10.8303 24.2577 10.8653 24.0613 10.7132C23.8649 10.5611 23.8297 10.2795 23.9826 10.0841L23.9881 10.0772C24.141 9.88189 24.4242 9.84689 24.6206 9.999ZM37.9748 11.7372C38.1609 11.5728 38.4458 11.5897 38.611 11.7748L38.6173 11.7818C38.7825 11.9669 38.7656 12.2502 38.5794 12.4146C38.3933 12.5789 38.1085 12.5621 37.9432 12.3769L37.937 12.37C37.7718 12.1849 37.7887 11.9016 37.9748 11.7372ZM22.4633 12.8219C22.6642 12.968 22.7081 13.2485 22.5612 13.4483L22.556 13.4553C22.4092 13.6552 22.1272 13.6988 21.9262 13.5527C21.7253 13.4067 21.6815 13.1262 21.8283 12.9264L21.8335 12.9193C21.9804 12.7194 22.2624 12.6758 22.4633 12.8219ZM40.4346 14.5871C40.6278 14.431 40.9116 14.4603 41.0685 14.6524L41.0745 14.6597C41.2314 14.8519 41.202 15.1341 41.0088 15.2902C40.8156 15.4463 40.5317 15.417 40.3748 15.2249L40.3689 15.2177C40.212 15.0255 40.2414 14.7432 40.4346 14.5871ZM20.3908 15.7045C20.5957 15.845 20.6473 16.1241 20.5061 16.3279L20.501 16.3352C20.3597 16.539 20.0791 16.5904 19.8742 16.4499C19.6692 16.3094 19.6176 16.0303 19.7589 15.8265L19.764 15.8191C19.9052 15.6153 20.1859 15.564 20.3908 15.7045ZM42.7662 17.5428C42.9662 17.3956 43.2484 17.4375 43.3965 17.6365L43.4021 17.6441C43.5501 17.8431 43.5079 18.1238 43.3078 18.271C43.1077 18.4182 42.8255 18.3762 42.6775 18.1772L42.672 18.1698C42.5239 17.9708 42.5661 17.6901 42.7662 17.5428ZM18.3983 18.6428C18.607 18.7777 18.6663 19.0553 18.5307 19.2629L18.5259 19.2702C18.3903 19.4778 18.1112 19.5368 17.9025 19.402C17.6937 19.2671 17.6344 18.9895 17.77 18.7819L17.7748 18.7745C17.9104 18.5669 18.1895 18.508 18.3983 18.6428ZM44.9557 20.6014C45.1628 20.4641 45.4426 20.5198 45.5806 20.7258L45.5859 20.7337C45.7239 20.9397 45.6678 21.218 45.4607 21.3552C45.2535 21.4925 44.9738 21.4367 44.8358 21.2307L44.8306 21.2229C44.6926 21.0169 44.7486 20.7386 44.9557 20.6014ZM16.4899 21.6336C16.7024 21.7624 16.7697 22.0382 16.6402 22.2496L16.6356 22.2571C16.5061 22.4685 16.2288 22.5354 16.0162 22.4066C15.8037 22.2778 15.7364 22.0021 15.8659 21.7907L15.8705 21.7831C16 21.5717 16.2773 21.5047 16.4899 21.6336ZM46.9839 23.7686C47.1984 23.6431 47.4747 23.7143 47.6009 23.9277L47.6057 23.9358C47.7318 24.1492 47.6602 24.4239 47.4456 24.5494C47.231 24.6749 46.9548 24.6036 46.8287 24.3902L46.824 24.3822C46.6978 24.1688 46.7694 23.8941 46.9839 23.7686ZM14.6709 24.6808C14.8874 24.8029 14.9634 25.0764 14.8406 25.2918L14.8363 25.2994C14.7135 25.5148 14.4385 25.5904 14.222 25.4683C14.0055 25.3463 13.9294 25.0727 14.0522 24.8574L14.0566 24.8496C14.1793 24.6343 14.4544 24.5587 14.6709 24.6808ZM48.8188 27.0499C49.0412 26.9387 49.312 27.0279 49.4238 27.2491L49.4281 27.2575C49.5398 27.4787 49.4501 27.7481 49.2277 27.8593C49.0053 27.9704 48.7344 27.8812 48.6227 27.6599L48.6185 27.6516C48.5067 27.4305 48.5964 27.161 48.8188 27.0499ZM12.9537 27.7856C13.1744 27.9 13.2602 28.1707 13.1452 28.3902L13.1411 28.398C13.0261 28.6176 12.754 28.7029 12.5332 28.5886C12.3125 28.4742 12.2267 28.2035 12.3417 27.984L12.3458 27.9761C12.4608 27.7565 12.733 27.6713 12.9537 27.7856ZM50.4154 30.4528C50.6461 30.3597 50.9089 30.4701 51.0025 30.6995L51.0061 30.7083C51.0997 30.9376 50.9886 31.199 50.758 31.2921C50.5273 31.3852 50.2645 31.2747 50.1709 31.0453L50.1674 31.0367C50.0738 30.8074 50.1848 30.5459 50.4154 30.4528ZM11.3552 30.9515C11.5805 31.0567 11.6774 31.3237 11.5716 31.5478L11.5678 31.5557C11.462 31.7798 11.1936 31.8762 10.9683 31.771C10.743 31.6658 10.6461 31.3989 10.7519 31.1748L10.7557 31.1667C10.8615 30.9427 11.1299 30.8463 11.3552 30.9515ZM51.7085 33.9799C51.9473 33.9101 52.1978 34.046 52.268 34.2835L52.2707 34.2926C52.3408 34.5301 52.2041 34.7792 51.9653 34.849C51.7264 34.9188 51.476 34.7828 51.4058 34.5453L51.4032 34.5364C51.333 34.2989 51.4697 34.0497 51.7085 33.9799ZM9.89777 34.1855C10.128 34.2796 10.238 34.5414 10.1435 34.7704L10.1401 34.7786C10.0456 35.0076 9.7823 35.117 9.55205 35.023C9.3218 34.929 9.21176 34.6672 9.30628 34.4382L9.30969 34.4299C9.40424 34.2009 9.66753 34.0915 9.89777 34.1855ZM8.61575 37.492C8.85132 37.572 8.97715 37.8267 8.89679 38.061L8.89395 38.0693C8.81363 38.3036 8.55755 38.4288 8.32197 38.3489C8.08638 38.269 7.96051 38.0143 8.04083 37.78L8.04372 37.7716C8.12408 37.5373 8.38018 37.4121 8.61575 37.492ZM52.6066 37.6243C52.8523 37.585 53.0835 37.7513 53.123 37.9957L53.1246 38.0051C53.164 38.2496 52.9967 38.4795 52.7509 38.5187C52.5052 38.5579 52.274 38.3915 52.2346 38.1471L52.2331 38.138C52.1936 37.8936 52.3608 37.6636 52.6066 37.6243ZM7.55903 40.8732C7.80014 40.9347 7.94551 41.1789 7.88372 41.4187L7.88156 41.4271C7.81983 41.6669 7.57432 41.8116 7.33319 41.7502C7.09207 41.6888 6.94665 41.4446 7.00838 41.2048L7.01059 41.1962C7.07238 40.9564 7.31792 40.8118 7.55903 40.8732ZM52.9875 41.3563C53.2364 41.3567 53.4378 41.5578 53.4374 41.8053L53.4374 41.8101L53.4374 41.8146C53.4368 42.0622 53.2346 42.2624 52.9857 42.2619C52.7368 42.2613 52.5355 42.0602 52.5361 41.8126L52.5361 41.8083L52.5361 41.8038C52.5365 41.5562 52.7386 41.3559 52.9875 41.3563ZM6.79969 44.3358C7.0459 44.3721 7.21591 44.6001 7.17941 44.8449L7.17813 44.8536C7.14171 45.0985 6.91258 45.2676 6.66637 45.2314C6.42015 45.1952 6.25007 44.9673 6.28649 44.7224L6.28782 44.7135C6.32431 44.4686 6.55348 44.2995 6.79969 44.3358ZM52.798 44.8899C53.0446 44.924 53.2166 45.1504 53.1824 45.3956L53.1811 45.4045C53.1468 45.6497 52.9191 45.8207 52.6726 45.7866C52.426 45.7524 52.2541 45.5259 52.2884 45.2808L52.2896 45.2722C52.3239 45.027 52.5515 44.8558 52.798 44.8899ZM6.45255 47.8559C6.70144 47.857 6.90238 48.0585 6.90136 48.306L6.90135 48.3095L6.90134 48.3139C6.90086 48.5614 6.69871 48.7617 6.44981 48.7612C6.20091 48.7608 5.99953 48.5597 6 48.3121L6.00001 48.3076L6.00003 48.3023C6.00105 48.0548 6.20365 47.8549 6.45255 47.8559ZM52.1361 48.3666C52.3761 48.4322 52.5172 48.6789 52.4513 48.9176L52.4489 48.9262C52.3829 49.1649 52.1348 49.3052 51.8948 49.2395C51.6548 49.1739 51.5138 48.9272 51.5798 48.6885L51.5821 48.6801C51.6481 48.4414 51.8961 48.301 52.1361 48.3666ZM6.6357 51.4085C6.88203 51.3731 7.1106 51.543 7.14622 51.788L7.14748 51.7967C7.18319 52.0416 7.01246 52.269 6.76614 52.3046C6.51982 52.3401 6.29118 52.1703 6.25547 51.9253L6.25416 51.9163C6.21854 51.6713 6.38936 51.444 6.6357 51.4085ZM51.0337 51.7311C51.2636 51.8259 51.3728 52.0881 51.2775 52.3168L51.274 52.3251C51.1787 52.5537 50.915 52.6622 50.6851 52.5674C50.4552 52.4726 50.3461 52.2103 50.4414 51.9817L50.4448 51.9736C50.5401 51.7449 50.8037 51.6364 51.0337 51.7311ZM7.35021 54.8945C7.58803 54.8214 7.84035 54.954 7.91379 55.1905L7.91638 55.1988C7.98991 55.4353 7.85676 55.6863 7.61897 55.7595C7.38119 55.8326 7.12881 55.7002 7.05528 55.4637L7.05258 55.455C6.97914 55.2185 7.11239 54.9675 7.35021 54.8945ZM49.5235 54.9354C49.7402 55.0571 49.8166 55.3305 49.6942 55.5461L49.6898 55.5539C49.5673 55.7694 49.2924 55.8453 49.0757 55.7235C48.859 55.6017 48.7827 55.3283 48.9051 55.1127L48.9094 55.1052C49.0319 54.8896 49.3068 54.8136 49.5235 54.9354ZM47.6363 57.9355C47.8368 58.0822 47.8797 58.3627 47.7322 58.5621L47.7269 58.5694C47.5793 58.7687 47.2972 58.8113 47.0968 58.6646C46.8964 58.5178 46.8535 58.2372 47.0011 58.0379L47.0062 58.0309C47.1537 57.8315 47.4358 57.7888 47.6363 57.9355ZM8.61237 58.2226C8.83482 58.1115 9.10566 58.2009 9.21731 58.4221L9.22123 58.4299C9.33297 58.6511 9.24326 58.9205 9.02085 59.0317C8.79845 59.1428 8.52757 59.0536 8.41583 58.8324L8.41173 58.8243C8.30009 58.603 8.38991 58.3336 8.61237 58.2226ZM45.4007 60.6885C45.5819 60.8583 45.5904 61.1419 45.4197 61.3221L45.4135 61.3287C45.2428 61.5088 44.9576 61.5172 44.7765 61.3474C44.5954 61.1776 44.5869 60.8939 44.7576 60.7138L44.7636 60.7075C44.9343 60.5273 45.2195 60.5188 45.4007 60.6885ZM10.4193 61.291C10.6189 61.1432 10.9012 61.1843 11.0499 61.3828L11.0551 61.3898C11.2038 61.5883 11.1626 61.8691 10.963 62.017C10.7634 62.165 10.4811 62.124 10.3324 61.9255L10.3269 61.9182C10.1783 61.7196 10.2196 61.4388 10.4193 61.291ZM42.8443 63.1498C43.0029 63.3406 42.976 63.6231 42.7841 63.7809L42.7772 63.7866C42.5853 63.9443 42.3012 63.9174 42.1427 63.7266C41.9842 63.5357 42.0112 63.2532 42.2031 63.0955L42.2098 63.09C42.4016 62.9322 42.6857 62.959 42.8443 63.1498ZM12.7434 63.9924C12.9127 63.811 13.1978 63.8004 13.3803 63.9688L13.3867 63.9747C13.5692 64.143 13.58 64.4266 13.4108 64.6081C13.2416 64.7896 12.9564 64.8004 12.7739 64.6321L12.7672 64.6259C12.5847 64.4575 12.5741 64.1739 12.7434 63.9924ZM39.9971 65.2715C40.1296 65.4811 40.0662 65.7578 39.8555 65.8896L39.8479 65.8944C39.6371 66.0261 39.3589 65.963 39.2265 65.7534C39.094 65.5438 39.1575 65.2671 39.3682 65.1354L39.3756 65.1308C39.5863 64.999 39.8645 65.062 39.9971 65.2715ZM15.5274 66.2225C15.6596 66.0127 15.9378 65.9493 16.1487 66.0808L16.156 66.0854C16.367 66.2168 16.4309 66.4934 16.2987 66.7032C16.1666 66.913 15.8885 66.9766 15.6776 66.8451L15.6698 66.8403C15.459 66.7088 15.3952 66.4322 15.5274 66.2225ZM36.8947 67.0033C36.9976 67.2287 36.8973 67.4944 36.6706 67.5967L36.6624 67.6004C36.4357 67.7026 36.1686 67.6027 36.0658 67.3773C35.963 67.1518 36.0635 66.8862 36.2901 66.784L36.2981 66.7804C36.5247 66.6781 36.7918 66.7778 36.8947 67.0033ZM18.6826 67.8935C18.7729 67.6628 19.0341 67.5487 19.2661 67.6385L19.2742 67.6417C19.5062 67.7314 19.6211 67.9912 19.5308 68.2219C19.4406 68.4526 19.1794 68.5669 18.9475 68.4772L18.9389 68.4739C18.707 68.384 18.5922 68.1242 18.6826 67.8935ZM33.583 68.2954C33.653 68.533 33.5161 68.782 33.2772 68.8516L33.2686 68.8541C33.0297 68.9236 32.7794 68.7874 32.7095 68.5498C32.6396 68.3122 32.7766 68.0633 33.0155 67.9937L33.0238 67.9913C33.2627 67.9217 33.513 68.0578 33.583 68.2954ZM22.0965 68.9518C22.143 68.7086 22.379 68.549 22.6235 68.5953L22.6321 68.5969C22.8766 68.6431 23.0372 68.8777 22.9908 69.1209C22.9443 69.3641 22.7084 69.5238 22.4639 69.4776L22.4549 69.4759C22.2104 69.4296 22.0499 69.195 22.0965 68.9518ZM30.1198 69.1059C30.1546 69.351 29.9829 69.5778 29.7365 69.6123L29.7274 69.6136C29.481 69.6481 29.253 69.4773 29.2184 69.2322C29.1837 68.987 29.3554 68.7604 29.6019 68.7259L29.6063 68.7253L29.6106 68.7247C29.8571 68.6901 30.085 68.8608 30.1198 69.1059ZM25.6449 69.3869C25.6489 69.1394 25.854 68.942 26.1028 68.946L26.1115 68.9462C26.3603 68.9501 26.5589 69.154 26.5549 69.4015C26.551 69.649 26.346 69.8465 26.0972 69.8425L26.0881 69.8424C25.8393 69.8383 25.6408 69.6344 25.6449 69.3869Z" fill="#1C1C1C"/>
</g>
<path d="M38.7995 10.5724C39.2051 10.5186 40.4129 10.3483 42.0083 11.8454C48.3177 17.4931 62.027 33.1542 62 46.9328C61.9729 59.8776 51.9951 72.4281 38.6824 74.2927C25.3696 76.1573 15.4369 66.3501 15.4639 53.4321C15.518 39.6446 29.2814 20.1376 35.5908 12.7329C36.3607 11.6487 37.5015 10.8807 38.7995 10.5724Z" fill="#1C1C1C"/>
<g filter="url(#filter3_dd_1_1192)">
<path d="M29.2548 56.1663C29.7247 56.1022 30.2031 56.1434 30.655 56.2869C31.1069 56.4304 31.5208 56.6726 31.8664 56.9957C32.212 57.3189 32.4806 57.7148 32.6526 58.1545C32.8245 58.5942 32.8954 59.0665 32.8601 59.537C32.8562 60.5672 32.4955 61.5647 31.8389 62.3614C31.1822 63.1582 30.2697 63.7057 29.2548 63.9117C28.7851 63.9742 28.3074 63.9318 27.8563 63.7876C27.4051 63.6435 26.992 63.4013 26.6467 63.0785C26.3015 62.7557 26.0329 62.3606 25.8603 61.9216C25.6878 61.4827 25.6158 61.0111 25.6494 60.541C25.6533 59.5108 26.014 58.5134 26.6706 57.7166C27.3273 56.9198 28.2398 56.3724 29.2548 56.1663ZM29.2548 62.1995C29.8218 62.0874 30.3322 61.783 30.6988 61.3383C31.0654 60.8936 31.2654 60.3362 31.2647 59.7611C31.2781 59.5014 31.2346 59.242 31.1371 59.0007C31.0396 58.7594 30.8905 58.5421 30.7001 58.3639C30.5097 58.1856 30.2827 58.0507 30.0347 57.9684C29.7866 57.8862 29.5236 57.8586 29.2638 57.8875C28.6941 57.9941 28.1797 58.2951 27.8095 58.7386C27.4392 59.1822 27.2363 59.7404 27.2358 60.3169C27.2212 60.5765 27.2636 60.8361 27.3599 61.0778C27.4563 61.3195 27.6044 61.5374 27.7939 61.7165C27.9834 61.8956 28.2098 62.0315 28.4574 62.1149C28.7049 62.1983 28.9678 62.2272 29.2277 62.1995" fill="white"/>
<path d="M47.2905 53.4769C47.7602 53.4145 48.2379 53.4569 48.689 53.601C49.1401 53.7452 49.5533 53.9874 49.8986 54.3102C50.2438 54.6329 50.5124 55.0281 50.6849 55.467C50.8575 55.9059 50.9295 56.3776 50.8959 56.8476C50.892 57.8778 50.5313 58.8753 49.8747 59.6721C49.218 60.4688 48.3055 61.0163 47.2905 61.2223C46.8203 61.2882 46.3412 61.2482 45.8885 61.1053C45.4359 60.9624 45.0212 60.7203 44.6752 60.3968C44.3292 60.0733 44.0606 59.6767 43.8893 59.2362C43.7179 58.7957 43.6482 58.3225 43.6852 57.8517C43.6891 56.8214 44.0498 55.824 44.7064 55.0272C45.3631 54.2305 46.2756 53.683 47.2905 53.4769ZM47.2905 59.5101C47.8561 59.3949 48.3645 59.0896 48.7305 58.6456C49.0965 58.2016 49.2978 57.6459 49.3005 57.0717C49.3139 56.812 49.2703 56.5526 49.1728 56.3113C49.0753 56.07 48.9262 55.8527 48.7359 55.6745C48.5455 55.4962 48.3185 55.3613 48.0704 55.2791C47.8224 55.1968 47.5594 55.1692 47.2996 55.1981C46.7298 55.306 46.2153 55.6072 45.8438 56.0502C45.4723 56.4932 45.2669 57.0507 45.2625 57.6275C45.2476 57.8888 45.2903 58.1502 45.3877 58.3932C45.4851 58.6363 45.6349 58.8553 45.8264 59.0347C46.018 59.2141 46.2467 59.3496 46.4965 59.4317C46.7463 59.5139 47.0112 59.5406 47.2725 59.5101" fill="white"/>
<path d="M41.5549 57.2442C41.781 57.2146 41.9816 57.3905 41.9816 57.6185C41.9813 57.6829 41.982 57.7472 41.9839 57.8115C42.0006 58.3974 41.6174 58.957 41.0363 59.0332L35.9164 59.7049C35.2746 59.7891 34.7403 59.207 34.7438 58.5598C34.7438 58.3187 34.9225 58.115 35.1616 58.0836L41.5549 57.2442Z" fill="white"/>
<path d="M52.3198 48.3044C53.2556 48.3846 54.123 48.8247 54.7375 49.5313C55.3519 50.2378 55.6648 51.155 55.6097 52.0875V52.6523C55.6019 53.6824 55.2773 54.6855 54.6795 55.5268C54.3251 56.0257 53.8846 56.4536 53.3817 56.7924C52.9258 57.0997 52.3917 56.6624 52.392 56.1126C52.392 55.7654 52.5924 55.456 52.8654 55.2413C53.1513 55.0164 53.396 54.7417 53.5867 54.4291C53.8756 53.9554 54.0297 53.4125 54.0324 52.8585V52.2937C54.052 52.0134 54.0157 51.732 53.9256 51.4656C53.8356 51.1993 53.6935 50.9533 53.5076 50.7417C53.3216 50.5301 53.0955 50.3572 52.8422 50.2327C52.5889 50.1083 52.3133 50.0349 52.0314 50.0167L47.5878 49.7657C46.3252 49.7062 45.1137 49.2512 44.1267 48.4658L40.8548 45.8392C40.3377 45.4336 39.7409 45.1403 39.1028 44.9782C38.4648 44.8161 37.7997 44.7887 37.1503 44.8979L33.1664 45.4537C32.2611 45.6128 31.4061 45.9813 30.6702 46.5294C29.9344 47.0776 29.3384 47.79 28.9301 48.6092C28.3808 49.6529 27.616 50.5694 26.6858 51.2986L25.433 52.3744C25.103 52.6261 24.8327 52.9469 24.6411 53.3141C24.4495 53.6812 24.3414 54.0857 24.3243 54.499V56.9822C24.3212 57.2557 24.362 57.5271 24.4444 57.7863C24.5222 58.031 24.5493 58.2926 24.4896 58.5423C24.3754 59.0206 24.3168 59.5108 24.3153 60.0032C24.3043 60.1824 24.0997 60.2901 23.9671 60.1691C23.6191 59.8513 23.3322 59.4712 23.1221 59.0474C22.8456 58.4895 22.7106 57.8728 22.7289 57.2511V54.7589C22.7322 54.0407 22.8956 53.332 23.2073 52.6841C23.5191 52.0361 23.9713 51.465 24.5316 51.0117L25.8656 49.9629C26.5687 49.4077 27.1461 48.7112 27.5601 47.919C28.101 46.8281 28.8945 45.8806 29.8755 45.1544C30.8564 44.4281 31.9967 43.9439 33.2025 43.7415L37.1503 43.1767C37.9828 43.0488 38.833 43.0935 39.6473 43.3079C40.4616 43.5224 41.2226 43.9019 41.8824 44.4228L45.1542 47.0404C45.9246 47.6551 46.8716 48.0099 47.8582 48.0534L52.3198 48.3044Z" fill="white"/>
</g>
<g filter="url(#filter4_dd_1_1192)">
<path fill-rule="evenodd" clip-rule="evenodd" d="M38.5959 35.5483C38.4921 35.8067 38.3714 36.0627 38.2335 36.3148C36.6148 39.274 33.2414 40.5576 30.6989 39.1818C28.1563 37.806 27.4074 34.2917 29.0262 31.3325C30.6449 28.3733 34.0183 27.0897 36.5608 28.4655C37.505 28.9764 38.2018 29.7821 38.6219 30.7448C38.0837 32.3948 38.0955 34.0919 38.5959 35.5483Z" fill="white"/>
</g>
<path d="M33.7909 33.71C34.5119 33.7752 35.2931 33.9056 35.2931 34.9488C35.2931 35.7311 34.8124 36.4483 33.7909 36.7091V37.5567L33.2501 37.687V36.8395C32.6492 36.9047 32.0483 36.7091 31.6877 36.4483L31.9882 35.6659C32.2886 35.8615 32.7693 36.0571 33.2501 35.9919V34.4924C32.529 34.4272 31.8079 34.2968 31.8079 33.1885C31.8079 32.4713 32.2886 31.6889 33.2501 31.4281V30.5806L33.7909 30.5154V31.3629C34.2716 31.2977 34.7523 31.4281 35.1128 31.6237L34.8124 32.4061C34.5119 32.2105 34.1514 32.1453 33.7909 32.1453V33.71ZM33.7909 35.9267C34.2716 35.7963 34.4518 35.4704 34.4518 35.1444C34.4518 34.7532 34.1514 34.6228 33.7909 34.5576V35.9267ZM33.2501 33.5796V32.2757C32.8294 32.4061 32.5891 32.7321 32.5891 33.0581C32.5891 33.384 32.8895 33.5144 33.2501 33.5796Z" fill="#1C1C1C"/>
<g filter="url(#filter5_dd_1_1192)">
<path d="M49.5628 35.2055C51.2253 32.1662 50.4562 28.557 47.8449 27.144C45.2336 25.731 41.769 27.0493 40.1065 30.0885C38.4439 33.1278 39.2131 36.737 41.8244 38.15C44.4357 39.563 47.9003 38.2447 49.5628 35.2055Z" fill="white"/>
</g>
<path fill-rule="evenodd" clip-rule="evenodd" d="M46.0338 29.7586L46.9481 29.6187L43.3612 35.7743L42.4469 35.9142L46.0338 29.7586ZM44.2051 31.5075C44.2051 32.4169 43.6424 33.1164 42.9391 33.2563C42.1654 33.3262 41.6028 32.8366 41.6028 31.8573C41.6028 30.878 42.1654 30.2484 42.9391 30.1085C43.6424 30.0386 44.2051 30.5282 44.2051 31.5075ZM42.3764 31.7174C42.3764 32.277 42.5874 32.5568 42.9391 32.5568C43.2907 32.4868 43.5017 32.207 43.5017 31.5775C43.5017 30.9479 43.2907 30.7381 42.9391 30.7381C42.5874 30.808 42.3764 31.1578 42.3764 31.7174ZM47.7918 33.6758C47.7918 32.6965 47.2291 32.1369 46.4555 32.2768C45.6818 32.4167 45.1895 33.0462 45.1895 34.0255C45.1895 35.0049 45.6818 35.5645 46.4555 35.4246C47.2291 35.2847 47.7918 34.6551 47.7918 33.6758ZM47.0181 33.7457C47.0181 34.3753 46.8071 34.6551 46.4555 34.725C46.1741 34.795 45.8928 34.5152 45.8928 33.8856C45.8928 33.326 46.1741 32.9763 46.4555 32.9063C46.8071 32.9063 47.0181 33.1162 47.0181 33.7457Z" fill="#1C1C1C"/>
<defs>
<filter id="filter0_d_1_1192" x="5.63354" y="4.30981" width="56.7893" height="74.1902" filterUnits="userSpaceOnUse" color-interpolation-filters="sRGB">
<feFlood flood-opacity="0" result="BackgroundImageFix"/>
<feColorMatrix in="SourceAlpha" type="matrix" values="0 0 0 0 0 0 0 0 0 0 0 0 0 0 0 0 0 0 127 0" result="hardAlpha"/>
<feOffset dx="-2" dy="-0.5"/>
<feGaussianBlur stdDeviation="2"/>
<feColorMatrix type="matrix" values="0 0 0 0 1 0 0 0 0 1 0 0 0 0 1 0 0 0 0.16 0"/>
<feBlend mode="normal" in2="BackgroundImageFix" result="effect1_dropShadow_1_1192"/>
<feBlend mode="normal" in="SourceGraphic" in2="effect1_dropShadow_1_1192" result="shape"/>
</filter>
<filter id="filter1_d_1_1192" x="2.47852" y="2.06885" width="55.8882" height="73.2908" filterUnits="userSpaceOnUse" color-interpolation-filters="sRGB">
<feFlood flood-opacity="0" result="BackgroundImageFix"/>
<feColorMatrix in="SourceAlpha" type="matrix" values="0 0 0 0 0 0 0 0 0 0 0 0 0 0 0 0 0 0 127 0" result="hardAlpha"/>
<feOffset dx="-2" dy="-0.5"/>
<feGaussianBlur stdDeviation="2"/>
<feColorMatrix type="matrix" values="0 0 0 0 1 0 0 0 0 1 0 0 0 0 1 0 0 0 0.16 0"/>
<feBlend mode="normal" in2="BackgroundImageFix" result="effect1_dropShadow_1_1192"/>
<feBlend mode="normal" in="SourceGraphic" in2="effect1_dropShadow_1_1192" result="shape"/>
</filter>
<filter id="filter2_d_1_1192" x="0" y="0.5" width="55.4375" height="72.8425" filterUnits="userSpaceOnUse" color-interpolation-filters="sRGB">
<feFlood flood-opacity="0" result="BackgroundImageFix"/>
<feColorMatrix in="SourceAlpha" type="matrix" values="0 0 0 0 0 0 0 0 0 0 0 0 0 0 0 0 0 0 127 0" result="hardAlpha"/>
<feOffset dx="-2" dy="-0.5"/>
<feGaussianBlur stdDeviation="2"/>
<feColorMatrix type="matrix" values="0 0 0 0 1 0 0 0 0 1 0 0 0 0 1 0 0 0 0.16 0"/>
<feBlend mode="normal" in2="BackgroundImageFix" result="effect1_dropShadow_1_1192"/>
<feBlend mode="normal" in="SourceGraphic" in2="effect1_dropShadow_1_1192" result="shape"/>
</filter>
<filter id="filter3_dd_1_1192" x="20.7273" y="41.6055" width="36.8887" height="23.8342" filterUnits="userSpaceOnUse" color-interpolation-filters="sRGB">
<feFlood flood-opacity="0" result="BackgroundImageFix"/>
<feColorMatrix in="SourceAlpha" type="matrix" values="0 0 0 0 0 0 0 0 0 0 0 0 0 0 0 0 0 0 127 0" result="hardAlpha"/>
<feOffset dx="1" dy="0.5"/>
<feGaussianBlur stdDeviation="0.5"/>
<feColorMatrix type="matrix" values="0 0 0 0 0 0 0 0 0 0 0 0 0 0 0 0 0 0 0.28 0"/>
<feBlend mode="normal" in2="BackgroundImageFix" result="effect1_dropShadow_1_1192"/>
<feColorMatrix in="SourceAlpha" type="matrix" values="0 0 0 0 0 0 0 0 0 0 0 0 0 0 0 0 0 0 127 0" result="hardAlpha"/>
<feOffset dx="-1" dy="-0.5"/>
<feGaussianBlur stdDeviation="0.5"/>
<feColorMatrix type="matrix" values="0 0 0 0 1 0 0 0 0 1 0 0 0 0 1 0 0 0 0.36 0"/>
<feBlend mode="normal" in2="effect1_dropShadow_1_1192" result="effect2_dropShadow_1_1192"/>
<feBlend mode="normal" in="SourceGraphic" in2="effect2_dropShadow_1_1192" result="shape"/>
</filter>
<filter id="filter4_dd_1_1192" x="26.1716" y="26.4133" width="14.4502" height="14.8206" filterUnits="userSpaceOnUse" color-interpolation-filters="sRGB">
<feFlood flood-opacity="0" result="BackgroundImageFix"/>
<feColorMatrix in="SourceAlpha" type="matrix" values="0 0 0 0 0 0 0 0 0 0 0 0 0 0 0 0 0 0 127 0" result="hardAlpha"/>
<feOffset dx="1" dy="0.5"/>
<feGaussianBlur stdDeviation="0.5"/>
<feColorMatrix type="matrix" values="0 0 0 0 0 0 0 0 0 0 0 0 0 0 0 0 0 0 0.28 0"/>
<feBlend mode="normal" in2="BackgroundImageFix" result="effect1_dropShadow_1_1192"/>
<feColorMatrix in="SourceAlpha" type="matrix" values="0 0 0 0 0 0 0 0 0 0 0 0 0 0 0 0 0 0 127 0" result="hardAlpha"/>
<feOffset dx="-1" dy="-0.5"/>
<feGaussianBlur stdDeviation="0.5"/>
<feColorMatrix type="matrix" values="0 0 0 0 1 0 0 0 0 1 0 0 0 0 1 0 0 0 0.36 0"/>
<feBlend mode="normal" in2="effect1_dropShadow_1_1192" result="effect2_dropShadow_1_1192"/>
<feBlend mode="normal" in="SourceGraphic" in2="effect2_dropShadow_1_1192" result="shape"/>
</filter>
<filter id="filter5_dd_1_1192" x="37.2288" y="25.0769" width="15.2117" height="15.1401" filterUnits="userSpaceOnUse" color-interpolation-filters="sRGB">
<feFlood flood-opacity="0" result="BackgroundImageFix"/>
<feColorMatrix in="SourceAlpha" type="matrix" values="0 0 0 0 0 0 0 0 0 0 0 0 0 0 0 0 0 0 127 0" result="hardAlpha"/>
<feOffset dx="1" dy="0.5"/>
<feGaussianBlur stdDeviation="0.5"/>
<feColorMatrix type="matrix" values="0 0 0 0 0 0 0 0 0 0 0 0 0 0 0 0 0 0 0.28 0"/>
<feBlend mode="normal" in2="BackgroundImageFix" result="effect1_dropShadow_1_1192"/>
<feColorMatrix in="SourceAlpha" type="matrix" values="0 0 0 0 0 0 0 0 0 0 0 0 0 0 0 0 0 0 127 0" result="hardAlpha"/>
<feOffset dx="-1" dy="-0.5"/>
<feGaussianBlur stdDeviation="0.5"/>
<feColorMatrix type="matrix" values="0 0 0 0 1 0 0 0 0 1 0 0 0 0 1 0 0 0 0.36 0"/>
<feBlend mode="normal" in2="effect1_dropShadow_1_1192" result="effect2_dropShadow_1_1192"/>
<feBlend mode="normal" in="SourceGraphic" in2="effect2_dropShadow_1_1192" result="shape"/>
</filter>
</defs>
</svg>
